<?xml version="1.0" encoding="utf-8"?>
<!-- Generator: Adobe Illustrator 21.0.0, SVG Export Plug-In . SVG Version: 6.00 Build 0)  -->
<svg version="1.1" id="Layer_1" xmlns="http://www.w3.org/2000/svg" xmlns:xlink="http://www.w3.org/1999/xlink" x="0px" y="0px"
	 viewBox="0 0 124.72 126.11" style="enable-background:new 0 0 124.72 126.11;" xml:space="preserve">
<style type="text/css">
	.st0{fill:#09664A;}
	.st1{fill:#897059;}
	.st2{fill:#C7B08F;}
	.st3{fill:#5E4D3B;}
	.st4{fill:#FFFFFF;}
	.st5{fill:#1A1A1A;}
</style>
<circle class="st0" cx="64.06499" cy="64.87282" r="55.07018"/>
<g>
	<path class="st1" d="M25.75887,68.2176c0.55838,22.77266,17.9805,27.58682,39.13634,27.06795
		c21.15607-0.52029,38.03431-6.17613,37.47594-28.94833c-0.55908-22.77491-17.9569-32.41335-39.11316-31.89377
		C42.10374,34.9628,25.19909,45.44334,25.75887,68.2176z"/>
	<g>
		<path class="st2" d="M70.44869,41.50946c14.89013-0.36573,23.2362,12.15388,23.61109,24.5068
			c0.43443,14.29-11.30505,17.04882-29.4426,17.62558c-18.13803,0.58039-30.83556-1.36196-31.27018-15.6506
			c-0.37725-12.50287,7.12892-25.7349,23.32318-26.13256c4.08614-0.10218,6.67023,2.07763,6.67023,2.07763
			S65.89855,41.62038,70.44869,41.50946z"/>
	</g>
	<path class="st3" d="M33.347,67.99124c0.13133,4.28837,1.367,7.46277,3.52127,9.79314
		c1.22053-5.52541,4.16212-8.73079,9.47701-11.57388c3.52983-1.9068,9.0401-2.58664,11.79775-5.67677
		c3.59133-3.98462,1.14157-9.73436-3.83928-10.56137c-8.87684-1.50891-15.72565,7.39366-20.85115,14.4606
		C33.347,65.61836,33.31094,66.80856,33.347,67.99124z M68.93932,60.26858c2.90713,2.95119,8.44382,3.3599,12.06271,5.09126
		c5.42764,2.57008,8.51891,5.61061,10.01587,11.02838c2.10425-2.5051,3.17896-5.86617,3.04189-10.37196
		c-0.03075-1.01688-0.11549-2.03537-0.25528-3.04786c-5.46691-6.81007-12.7485-15.38155-21.54935-13.4362
		C67.32183,50.6017,65.15698,56.46486,68.93932,60.26858z"/>
	<g>
		<g>
			<g>
				<path d="M70.54052,52.8494c1.57201-1.13213,3.70682-0.67659,4.76686,1.01942c1.05864,1.69925,0.64099,3.9936-0.93054,5.12892
					c-1.57277,1.13306-3.70753,0.6771-4.76663-1.02261C68.55083,56.27818,68.96847,53.98477,70.54052,52.8494z"/>
				<path class="st4" d="M70.4565,54.81841c0.39973-0.2872,0.94315-0.17242,1.21362,0.25946
					c0.2691,0.43118,0.16349,1.01505-0.236,1.30225c-0.40043,0.28791-0.94207,0.1736-1.21253-0.25735
					C69.953,55.69065,70.05814,55.10519,70.4565,54.81841z"/>
			</g>
		</g>
	</g>
	<g>
		<g>
			<g>
				<path d="M52.29868,53.29713c1.573-1.13236,3.70799-0.6764,4.76686,1.01984c1.05869,1.69948,0.64198,3.99313-0.93097,5.12873
					c-1.57206,1.13373-3.70729,0.67569-4.76456-1.02242C50.31039,56.72799,50.7262,54.4327,52.29868,53.29713z"/>
				<path class="st4" d="M52.2163,55.26638c0.39878-0.28815,0.94156-0.17201,1.21154,0.25964
					c0.26863,0.43071,0.16509,1.01416-0.23623,1.30207c-0.39973,0.28791-0.94226,0.17262-1.21136-0.25716
					C51.71232,56.13815,51.8154,55.55312,52.2163,55.26638z"/>
			</g>
		</g>
	</g>
	<path d="M58.5421,66.27478c0.04293,1.82479,2.9549,3.23247,5.22146,3.17736c1.6037-0.03951,5.10551-1.60512,5.0621-3.42968
		c-0.04523-1.82413-0.19288-3.30022-5.22306-3.17693C58.90073,62.96125,58.49503,64.45016,58.5421,66.27478z"/>
	<g>
		<path class="st5" d="M67.87926,71.67187c-1.58329,3.79408-6.71015,4.11091-8.63392,0.39972
			c-0.11459-0.22292,0.37927-0.19241,0.46123-0.03489c1.78582,3.44509,6.25372,2.92989,7.67907-0.48469
			C67.46416,71.36562,67.95045,71.50311,67.87926,71.67187L67.87926,71.67187z"/>
	</g>
</g>
</svg>
