<?xml version="1.0" encoding="utf-8"?>
<!-- Generator: Adobe Illustrator 21.0.0, SVG Export Plug-In . SVG Version: 6.00 Build 0)  -->
<svg version="1.1" id="Layer_1" xmlns="http://www.w3.org/2000/svg" xmlns:xlink="http://www.w3.org/1999/xlink" x="0px" y="0px"
	 viewBox="0 0 124.72 126.11" style="enable-background:new 0 0 124.72 126.11;" xml:space="preserve">
<style type="text/css">
	.st0{fill:#B2DCD9;}
	.st1{fill:#C19F84;}
	.st2{opacity:0.23;fill:#412D34;}
	.st3{fill:#F5DFD0;}
	.st4{opacity:0.2;fill:#221E20;}
	.st5{fill:#F0F1F1;}
	.st6{opacity:0.83;fill:#35A8E0;}
	.st7{fill:#726658;}
	.st8{opacity:0.2;}
	.st9{fill:#221E20;}
</style>
<circle class="st0" cx="62.36" cy="66.97181" r="55.07018"/>
<g>
	<path class="st1" d="M43.99754,91.79461c-3.36536,6.18793-8.4677,0-8.4677,0c3.03969,1.30273,4.99377-2.82256,4.23385-4.77665
		c-0.75992-1.95408-4.23385-2.93112-5.10233-7.16497s0.43424-2.60545-3.25681-8.68482
		c-3.69105-6.07937-4.34241-16.06691,2.93113-20.51788s3.69105-5.21089,6.40505-9.87898S50.9454,24.59583,55.61349,26.22424
		c4.66809,1.6284,3.69105,4.88521,3.69105,4.88521c11.61594-6.40505,22.68909,1.51984,27.89998,12.05018
		s9.0105,11.50739,8.79338,15.52411c-0.21712,4.01673-7.59922,10.20466-6.62218,14.54707s1.30273,10.42178,3.36537,5.97081
		c-0.21712,3.58249-5.86225,4.12529-5.86225,4.12529c7.05641,4.88522,3.47392,5.53658,3.47392,5.53658
		c-3.14825-2.714-4.34241,2.82256-1.73696,3.25681s-5.97081,2.93113-7.59922-0.10856
		C79.38818,88.97205,43.99754,91.79461,43.99754,91.79461z"/>
	<path class="st2" d="M43.99754,91.79461c-3.36536,6.18793-8.4677,0-8.4677,0c3.03969,1.30273,4.99377-2.82256,4.23385-4.77665
		c-0.75992-1.95408-4.23385-2.93112-5.10233-7.16497s0.43424-2.60545-3.25681-8.68482
		c-3.69105-6.07937,5.19835-14.57502,12.47188-19.02599s-5.84971-6.70278-3.1357-11.37087s7.13095-9.35035,11.79904-7.72195
		s8.63054,4.32855,8.63054,4.32855c11.61595-6.40505,14.67076,4.63874,19.88166,15.16908s15.16304,2.12003,14.94592,6.13675
		c-0.21712,4.01673-7.59922,10.20466-6.62218,14.54707s1.30273,10.42178,3.36537,5.97081
		c-0.21712,3.58249-5.86225,4.12529-5.86225,4.12529c7.05641,4.88522,3.47392,5.53658,3.47392,5.53658
		c-3.14825-2.714-4.34241,2.82256-1.73696,3.25681s-5.97081,2.93113-7.59922-0.10856
		C79.38818,88.97205,43.99754,91.79461,43.99754,91.79461z"/>
	<path class="st3" d="M64.46205,39.57713c-0.76944,0-3.43466,0-4.20409,0c-15.3711,0-24.1448,26.05445-21.53935,40.81866
		c2.60545,14.76418,13.17277,17.4621,15.19844,19.97507c2.85398,3.54054,16.32944,3.37771,16.88594,0
		c2.38832-2.17121,12.59298-5.21089,15.19843-19.97507C88.60683,65.63158,79.83317,39.57713,64.46205,39.57713z"/>
	<g>
		<g id="_x38__13_">
			<path class="st4" d="M68.19412,78.3588c-0.46757,0-0.90754,0.10271-1.29452,0.28101l-0.72202-7.26687
				c0-2.04314-1.44299-3.70016-3.22343-3.70016c-1.7806,0-3.22377,1.65703-3.22377,3.70016l-0.66045,6.97483
				c-0.21192-0.04527-0.43225-0.07202-0.65995-0.07202c-1.53267,0-2.11426,1.15873-2.11426,2.4985
				c0,1.33978,1.24222,2.42611,2.77421,2.42611c0.41253,0,0.80293-0.08069,1.15443-0.22199
				c0.57044,1.04262,1.57776,1.7385,2.72979,1.7385c1.24584,0,2.32465-0.81239,2.86131-2.00024
				c0.46329,0.30228,1.03527,0.48373,1.65665,0.48373c1.533,0,2.77437-1.08633,2.77437-2.42611
				C70.24648,79.43449,69.72612,78.3588,68.19412,78.3588z"/>
			<path class="st3" d="M67.90745,77.42361c-0.43586,0-0.84581,0.09485-1.20588,0.26213l-0.72201-6.77212
				c0-1.90459-1.34458-3.44786-3.00379-3.44786c-1.65939,0-3.00361,1.54327-3.00361,3.44786l-0.66046,6.49425
				c-0.1977-0.04212-0.4031-0.06652-0.61589-0.06652c-1.42738,0-1.92478,1.08395-1.92478,2.33203
				c0,1.24887,1.15786,2.26118,2.58577,2.26118c0.3844,0,0.74755-0.07595,1.07504-0.20743
				c0.53154,0.97217,1.47078,1.62041,2.54395,1.62041c1.16095,0,2.16672-0.75726,2.66635-1.86365
				c0.43139,0.28143,0.96465,0.45066,1.54434,0.45066c1.42722,0,2.58474-1.01231,2.58474-2.26118
				C69.7712,78.4253,69.33518,77.42361,67.90745,77.42361z"/>
		</g>
		<g id="_x39__11_">
			<path class="st5" d="M46.54874,67.77625c0-1.55768,1.95356-2.81961,4.37234-2.81961c2.41037,0,4.36761,1.26193,4.36761,2.81961
				c0,1.55939-1.95724,2.82304-4.36761,2.82304C48.5023,70.59929,46.54874,69.33564,46.54874,67.77625z"/>
			<ellipse class="st6" cx="52.046" cy="67.87149" rx="2.49031" ry="1.60736"/>
			<path class="st3" d="M55.79828,67.20174c0,0.00306,0,0.00306,0,0.00578H45.70087c0-0.00272,0-0.00272,0-0.00578
				c0.00511-0.07867,0.01443-0.15464,0.03334-0.22993c0.29024-1.62415,2.42561-2.88881,5.01543-2.88881
				c2.59926,0,4.7252,1.26466,5.01555,2.88881C55.78436,67.0471,55.79328,67.12307,55.79828,67.20174z"/>
			<path class="st5" d="M69.76958,67.77625c0-1.55768,1.95383-2.81961,4.37288-2.81961c2.41038,0,4.36735,1.26193,4.36735,2.81961
				c0,1.55939-1.95697,2.82304-4.36735,2.82304C71.72341,70.59929,69.76958,69.33564,69.76958,67.77625z"/>
			<ellipse class="st6" cx="72.99489" cy="67.87139" rx="2.49019" ry="1.60753"/>
			<path class="st3" d="M79.01913,67.20174c0,0.00306,0,0.00306,0,0.00578H68.92212c0-0.00272,0-0.00272,0-0.00578
				c0.00497-0.07867,0.01417-0.15464,0.03307-0.22993c0.29037-1.62415,2.42562-2.88881,5.01557-2.88881
				c2.59888,0,4.72494,1.26466,5.01555,2.88881C79.00496,67.0471,79.01413,67.12307,79.01913,67.20174z"/>
			<path class="st7" d="M55.79828,67.20174H45.70087c0.00511-0.07867,0.01443-0.15464,0.03334-0.22993h10.03099
				C55.78436,67.0471,55.79328,67.12307,55.79828,67.20174z"/>
			<path class="st7" d="M79.01913,67.20174H68.92212c0.00497-0.07867,0.01417-0.15464,0.03307-0.22993h10.03112
				C79.00496,67.0471,79.01413,67.12307,79.01913,67.20174z"/>
		</g>
		<g>
			<g>
				<path class="st1" d="M77.17406,63.17501c-0.76086-1.04643-1.97179-1.68389-3.41025-1.79288
					c-1.47078-0.1111-2.99931,0.33824-4.30284,1.26629l-0.53885-0.74008c1.47684-1.04913,3.21587-1.55828,4.8979-1.42968
					c1.714,0.13017,3.16772,0.90136,4.09016,2.17269L77.17406,63.17501z"/>
			</g>
			<g>
				<path class="st1" d="M46.7373,63.33766l-0.81823-0.5339c0.9388-1.39027,2.47184-2.26504,4.31428-2.46509
					c1.80903-0.19451,3.70773,0.28755,5.34673,1.35739l-0.54592,0.80867c-1.44929-0.94522-3.1177-1.3723-4.69994-1.20156
					C48.78766,61.47033,47.51119,62.19296,46.7373,63.33766z"/>
			</g>
		</g>
	</g>
	<g class="st8">
		<path class="st9" d="M58.40831,88.17506c1.02454,1.15891,2.77367,1.78131,4.93272,1.75793
			c2.20203-0.02972,4.5593-0.72672,6.63457-1.97033l0.72336,0.82024c-2.34448,1.40515-5.02695,2.19691-7.54966,2.22787
			c-2.56498,0.03039-4.66807-0.72722-5.91225-2.13528L58.40831,88.17506z"/>
	</g>
	<g>
		<path class="st1" d="M34.33569,50.65028c-7.27355,4.45097-6.62219,14.43852-2.93113,20.51788
			c-3.69106-6.07936,5.19835-14.57501,12.47188-19.02598s-5.84971-6.70279-3.13571-11.37088
			C38.02673,45.43938,41.60922,46.19932,34.33569,50.65028z"/>
		<path class="st1" d="M87.20451,43.15962c-5.21088-10.53033-16.28403-18.45522-27.89998-12.05018
			c0,0,0.97704-3.25681-3.69104-4.88521c-4.66808-1.6284-12.15874,9.87899-14.87276,14.54708
			c2.71402-4.66808,7.13096-9.35036,11.79905-7.72196c4.66808,1.62841,8.63054,4.32857,8.63054,4.32857
			c11.61595-6.40506,14.67075,4.63873,19.88165,15.16908c5.21089,10.53034,15.16306,2.12003,14.94593,6.13675
			C96.21502,54.66702,92.41541,53.68998,87.20451,43.15962z"/>
	</g>
</g>
</svg>
