<?xml version="1.0" encoding="utf-8"?>
<!-- Generator: Adobe Illustrator 21.0.0, SVG Export Plug-In . SVG Version: 6.00 Build 0)  -->
<svg version="1.1" id="Layer_1" xmlns="http://www.w3.org/2000/svg" xmlns:xlink="http://www.w3.org/1999/xlink" x="0px" y="0px"
	 viewBox="0 0 124.72 126.11" style="enable-background:new 0 0 124.72 126.11;" xml:space="preserve">
<style type="text/css">
	.st0{fill:#894614;}
	.st1{fill:#EAD0BF;}
	.st2{opacity:0.52;}
	.st3{fill:#A78A7B;}
	.st4{fill:#543E36;}
	.st5{opacity:0.56;fill:#61493F;}
	.st6{opacity:0.42;fill:#CB8A8D;}
	.st7{fill:#F1F2F2;}
	.st8{fill:#657C78;}
	.st9{fill:#DDC2B3;}
	.st10{fill:#A99891;}
	.st11{opacity:0.06;fill:none;stroke:#231F20;stroke-width:0.5;stroke-miterlimit:10;}
	.st12{opacity:0.1;fill:#231F20;}
	.st13{fill:#231F20;}
</style>
<circle class="st0" cx="62.36" cy="63.055" r="55.07018"/>
<g>
	<path class="st1" d="M61.33614,29.48047c-9.91386,0-23.35869,8.25727-23.35869,23.12435s3.12355,29.45444,3.12355,29.45444
		s0,4.37316,4.48161,9.12291c4.48161,4.74976,8.28419,10.64531,15.75354,10.64531s11.27193-5.89555,15.75353-10.64531
		c4.48161-4.74975,4.48161-9.12291,4.48161-9.12291s3.67471-14.59757,3.12354-29.45444
		C83.95647,32.70236,71.25,29.48047,61.33614,29.48047z"/>
	<g class="st2">
		<g>
			
				<rect x="48.33565" y="80.6302" transform="matrix(0.56104 -0.82779 0.82779 0.56104 -45.47083 75.81665)" class="st3" width="0.83224" height="0.30471"/>
		</g>
		<g>
			
				<rect x="48.55623" y="80.21033" transform="matrix(0.5892 -0.80799 0.80799 0.5892 -44.37008 73.45577)" class="st3" width="2.9939" height="0.30439"/>
		</g>
		<g>
			
				<rect x="49.0079" y="80.56491" transform="matrix(0.52659 -0.85012 0.85012 0.52659 -44.50018 81.52379)" class="st3" width="3.87954" height="0.30472"/>
		</g>
		<g>
			
				<rect x="50.58121" y="81.35178" transform="matrix(0.55072 -0.83469 0.83469 0.55072 -44.86102 79.66342)" class="st3" width="1.9789" height="0.3047"/>
		</g>
		<g>
			
				<rect x="52.5282" y="78.98544" transform="matrix(0.66543 -0.74646 0.74646 0.66543 -41.27539 66.18487)" class="st3" width="1.33433" height="0.30419"/>
		</g>
		<g>
			
				<rect x="52.31903" y="80.25739" transform="matrix(0.55867 -0.82939 0.82939 0.55867 -43.00568 79.99811)" class="st3" width="2.69711" height="0.30412"/>
		</g>
		<g>
			
				<rect x="55.11137" y="78.04018" transform="matrix(0.79835 -0.6022 0.6022 0.79835 -35.91826 49.12271)" class="st3" width="0.55376" height="0.30478"/>
		</g>
		<g>
			
				<rect x="53.19942" y="81.32927" transform="matrix(0.6817 -0.73163 0.73163 0.6817 -42.46822 65.34654)" class="st3" width="1.33722" height="0.30462"/>
		</g>
		<g>
			
				<rect x="55.01435" y="79.4595" transform="matrix(0.7887 -0.61477 0.61477 0.7887 -37.1265 51.2032)" class="st3" width="1.82177" height="0.30468"/>
		</g>
		<g>
			
				<rect x="55.22755" y="78.29813" transform="matrix(0.73744 -0.67541 0.67541 0.73744 -38.21716 58.59027)" class="st3" width="2.04616" height="0.30435"/>
		</g>
		<g>
			<polygon class="st3" points="53.71832,79.5754 53.5159,79.34781 54.5209,78.45214 54.72332,78.67973 			"/>
		</g>
		<g>
			
				<rect x="54.55844" y="80.83514" transform="matrix(0.68794 -0.72577 0.72577 0.68794 -41.48354 65.49648)" class="st3" width="1.72545" height="0.30491"/>
		</g>
		<g>
			
				<rect x="54.79809" y="79.36532" transform="matrix(0.56184 -0.82725 0.82725 0.56184 -40.78825 82.02686)" class="st3" width="4.48193" height="0.30427"/>
		</g>
		<g>
			
				<rect x="56.37199" y="79.5617" transform="matrix(0.58838 -0.80859 0.80859 0.58838 -40.37462 80.11692)" class="st3" width="4.26184" height="0.30481"/>
		</g>
		<g>
			
				<rect x="57.97699" y="77.60488" transform="matrix(0.54354 -0.83939 0.83939 0.54354 -38.29727 85.09022)" class="st3" width="2.22019" height="0.30487"/>
		</g>
		<g>
			
				<rect x="57.82872" y="81.14954" transform="matrix(0.65362 -0.75682 0.75682 0.65362 -41.31246 72.33832)" class="st3" width="1.08565" height="0.30487"/>
		</g>
		<g>
			<polygon class="st3" points="59.72108,81.68504 59.42217,81.62946 59.60099,80.65985 59.8999,80.71544 			"/>
		</g>
		<g>
			<polygon class="st3" points="60.03467,81.94305 59.78505,81.76894 60.45471,80.80616 60.70432,80.98026 			"/>
		</g>
		<g>
			
				<rect x="58.99194" y="79.51997" transform="matrix(0.59613 -0.80289 0.80289 0.59613 -39.79489 80.23217)" class="st3" width="1.72256" height="0.30436"/>
		</g>
		<g>
			
				<rect x="61.05508" y="79.4733" transform="matrix(0.44032 -0.89784 0.89784 0.44032 -37.04477 99.8241)" class="st3" width="0.98336" height="0.30488"/>
		</g>
		<g>
			<polygon class="st3" points="60.58266,79.08194 60.34983,78.88582 61.35824,77.69125 61.59107,77.88737 			"/>
		</g>
		<g>
			<polygon class="st3" points="60.24915,77.8816 60.15161,77.59319 60.88733,77.34305 60.98487,77.63146 			"/>
		</g>
		<g>
			<polygon class="st3" points="61.4563,79.06306 61.23816,78.85016 62.09607,77.96918 62.31422,78.18208 			"/>
		</g>
		<g>
			<polygon class="st3" points="74.66951,81.21256 74.2028,80.52351 74.45451,80.35255 74.92122,81.04161 			"/>
		</g>
		<g>
			
				<rect x="73.10831" y="78.86549" transform="matrix(0.80812 -0.58901 0.58901 0.80812 -33.27761 58.57144)" class="st3" width="0.30481" height="2.99406"/>
		</g>
		<g>
			
				<rect x="72.21374" y="78.7775" transform="matrix(0.85035 -0.52622 0.52622 0.85035 -31.64516 50.15934)" class="st3" width="0.30472" height="3.87954"/>
		</g>
		<g>
			<polygon class="st3" points="72.16132,82.41396 71.07162,80.76211 71.32543,80.5943 72.41513,82.24615 			"/>
		</g>
		<g>
			
				<rect x="69.96599" y="78.47045" transform="matrix(0.7468 -0.66505 0.66505 0.7468 -34.87633 66.6694)" class="st3" width="0.30458" height="1.33416"/>
		</g>
		<g>
			<polygon class="st3" points="70.27454,81.61215 68.76534,79.37666 69.0181,79.20675 70.52731,81.44225 			"/>
		</g>
		<g>
			
				<rect x="67.77312" y="77.91569" transform="matrix(0.60227 -0.79829 0.79829 0.60227 -35.40453 85.32391)" class="st3" width="0.30478" height="0.55376"/>
		</g>
		<g>
			<polygon class="st3" points="69.79053,82.07467 68.87913,81.09615 69.10147,80.88849 70.01287,81.86701 			"/>
		</g>
		<g>
			
				<rect x="67.23611" y="78.70096" transform="matrix(0.61514 -0.78842 0.78842 0.61514 -36.83223 83.77032)" class="st3" width="0.30484" height="1.82177"/>
		</g>
		<g>
			
				<rect x="66.91097" y="77.42722" transform="matrix(0.67582 -0.73707 0.73707 0.67582 -36.08259 74.86239)" class="st3" width="0.30435" height="2.04616"/>
		</g>
		<g>
			<polygon class="st3" points="69.59545,79.5754 68.59071,78.67973 68.79313,78.45214 69.79787,79.34781 			"/>
		</g>
		<g>
			
				<rect x="67.74029" y="80.12478" transform="matrix(0.72629 -0.68739 0.68739 0.72629 -37.08705 68.83611)" class="st3" width="0.30491" height="1.72563"/>
		</g>
		<g>
			
				<rect x="66.12258" y="77.27649" transform="matrix(0.82732 -0.56173 0.56173 0.82732 -33.22297 50.95921)" class="st3" width="0.30427" height="4.48193"/>
		</g>
		<g>
			
				<rect x="64.65846" y="77.58318" transform="matrix(0.80803 -0.58914 0.58914 0.80803 -34.52099 53.48494)" class="st3" width="0.30481" height="4.26184"/>
		</g>
		<g>
			
				<rect x="64.07425" y="76.64722" transform="matrix(0.83896 -0.54419 0.54419 0.83896 -31.97186 47.47353)" class="st3" width="0.30487" height="2.22019"/>
		</g>
		<g>
			
				<rect x="64.78979" y="80.75915" transform="matrix(0.7569 -0.65353 0.65353 0.7569 -37.34591 62.2064)" class="st3" width="0.30487" height="1.08565"/>
		</g>
		<g>
			<polygon class="st3" points="63.59269,81.68504 63.41388,80.71544 63.71278,80.65985 63.8916,81.62946 			"/>
		</g>
		<g>
			<polygon class="st3" points="63.27911,81.94305 62.60997,80.98026 62.85959,80.80616 63.52872,81.76894 			"/>
		</g>
		<g>
			
				<rect x="63.30836" y="78.81087" transform="matrix(0.80338 -0.59546 0.59546 0.80338 -34.9643 53.45302)" class="st3" width="0.30436" height="1.72256"/>
		</g>
		<g>
			
				<rect x="61.61457" y="79.13406" transform="matrix(0.89802 -0.43995 0.43995 0.89802 -28.73231 35.29409)" class="st3" width="0.30488" height="0.98336"/>
		</g>
		<g>
			<polygon class="st3" points="62.73111,79.08194 61.7227,77.88737 61.95553,77.69125 62.96394,78.88582 			"/>
		</g>
		<g>
			<polygon class="st3" points="61.85747,79.06306 60.99955,78.18208 61.2177,77.96918 62.07561,78.85016 			"/>
		</g>
		<g>
			<path class="st3" d="M53.37143,97.85689c-0.29838-0.21709-0.20373-0.91193,0.33719-2.47829l0.28789,0.09964
				c-0.62954,1.82175-0.50053,2.09286-0.44574,2.13219L53.37143,97.85689z"/>
		</g>
		<g>
			<path class="st3" d="M54.21964,97.31047c-0.29812-0.21763-0.20346-0.91193,0.33745-2.47829l0.28789,0.09963
				c-0.62954,1.82175-0.50053,2.09286-0.446,2.13219L54.21964,97.31047z"/>
		</g>
		<g>
			<path class="st3" d="M54.30145,98.82073c-0.00708-0.05611-0.16964-1.37969,0.00446-2.00634l0.29314,0.0818
				c-0.15758,0.5674,0.00288,1.87366,0.00446,1.88678L54.30145,98.82073z"/>
		</g>
		<g>
			<path class="st3" d="M54.93702,100.62727c-0.00708-0.05611-0.16964-1.37968,0.00446-2.00634l0.29314,0.08181
				c-0.15758,0.56739,0.00288,1.87366,0.00446,1.88677L54.93702,100.62727z"/>
		</g>
		<g>
			<path class="st3" d="M55.4344,97.62301c-0.29864-0.2171-0.20425-0.91193,0.33693-2.47829l0.2879,0.09963
				c-0.62954,1.82175-0.50054,2.09286-0.446,2.13219L55.4344,97.62301z"/>
		</g>
		<g>
			<path class="st3" d="M55.14363,98.62933c-0.07682-0.16885-0.74018-1.66129-0.35318-2.21977l0.25013,0.17306
				c-0.21788,0.31464,0.11747,1.34455,0.37992,1.91981L55.14363,98.62933z"/>
		</g>
		<g>
			<path class="st3" d="M55.87044,99.01738c-0.07682-0.16885-0.73992-1.66129-0.35318-2.21977l0.25014,0.17305
				c-0.21762,0.31464,0.11747,1.34455,0.37992,1.92034L55.87044,99.01738z"/>
		</g>
		<g>
			<path class="st3" d="M57.19087,97.23391l-0.30415-0.01888c0.00105-0.01048,0.06817-1.09546,0.27006-2.23235l0.29996,0.05349
				C57.25747,96.15575,57.19139,97.22289,57.19087,97.23391z"/>
		</g>
		<g>
			<path class="st3" d="M56.41162,97.85689c-0.29786-0.21709-0.20321-0.91193,0.33771-2.47829l0.28737,0.09964
				c-0.62875,1.82175-0.50027,2.09286-0.44574,2.13219L56.41162,97.85689z"/>
		</g>
		<g>
			<path class="st3" d="M57.34189,98.82073c-0.00682-0.05611-0.16938-1.37969,0.0042-2.00634l0.29366,0.0818
				c-0.15784,0.5674,0.00262,1.87366,0.0042,1.88678L57.34189,98.82073z"/>
		</g>
		<g>
			<path class="st3" d="M57.89094,96.65602c-0.29786-0.21709-0.20294-0.91193,0.33771-2.47829l0.28737,0.09964
				c-0.62875,1.82175-0.50027,2.09286-0.44574,2.13219L57.89094,96.65602z"/>
		</g>
		<g>
			<path class="st3" d="M58.85425,96.81596c-0.2989-0.21762-0.20399-0.91245,0.33771-2.47829l0.28737,0.09963
				c-0.6298,1.82123-0.50027,2.09234-0.44574,2.13219L58.85425,96.81596z"/>
		</g>
		<g>
			<path class="st3" d="M58.96857,99.02367c-0.37966-0.48244-1.58158-2.09759-1.12431-2.62566l0.22969,0.19927
				c-0.19613,0.22654,0.42791,1.34035,1.13374,2.23865L58.96857,99.02367z"/>
		</g>
		<g>
			<path class="st3" d="M60.23132,97.23391l-0.30415-0.01888c0.00105-0.01048,0.06817-1.09546,0.27007-2.23235l0.29995,0.05349
				C60.29791,96.15575,60.23184,97.22289,60.23132,97.23391z"/>
		</g>
		<g>
			<path class="st3" d="M63.50669,97.85689l-0.17934-0.24647c0.05453-0.03933,0.18301-0.31044-0.44574-2.13219l0.28737-0.09964
				C63.70963,96.94496,63.80455,97.63979,63.50669,97.85689z"/>
		</g>
		<g>
			<path class="st3" d="M62.57641,98.82073l-0.30205-0.03776c0.00158-0.01311,0.16204-1.31938,0.0042-1.88678l0.29366-0.0818
				C62.74579,97.44104,62.58323,98.76462,62.57641,98.82073z"/>
		</g>
		<g>
			<path class="st3" d="M61.44372,97.62301l-0.17934-0.24647c0.05506-0.03985,0.18406-0.31044-0.44574-2.13219l0.28737-0.09963
				C61.64771,96.71108,61.74263,97.40591,61.44372,97.62301z"/>
		</g>
		<g>
			<path class="st3" d="M60.80081,98.38758l-0.17934-0.24647c0.05453-0.03933,0.18354-0.31044-0.44521-2.13219l0.28737-0.09963
				C61.00428,97.47565,61.09867,98.17048,60.80081,98.38758z"/>
		</g>
		<g>
			<path class="st3" d="M60.94921,99.02367l-0.23912-0.18774c0.70583-0.89829,1.33039-2.01211,1.13427-2.23865l0.22969-0.19927
				C62.53184,96.92609,61.32888,98.54123,60.94921,99.02367z"/>
		</g>
		<g>
			<path class="st3" d="M59.68699,97.23391c-0.00053-0.01102-0.0666-1.07921-0.26587-2.19775l0.29995-0.05349
				c0.20189,1.13689,0.26902,2.22187,0.27007,2.23235L59.68699,97.23391z"/>
		</g>
		<g>
			<path class="st3" d="M65.48209,98.042l-0.17934-0.24647c0.05453-0.03933,0.18301-0.30991-0.44574-2.13219l0.28737-0.09964
				C65.68555,97.1306,65.77995,97.82542,65.48209,98.042z"/>
		</g>
		<g>
			<path class="st3" d="M64.55181,99.00584l-0.30205-0.03776c0.00157-0.01311,0.16203-1.31938,0.0042-1.88678l0.29366-0.0818
				C64.72119,97.62615,64.55863,98.94973,64.55181,99.00584z"/>
		</g>
		<g>
			<path class="st3" d="M63.41912,97.80865l-0.17934-0.24647c0.05454-0.03933,0.18354-0.31044-0.44521-2.13219l0.28737-0.09963
				C63.62259,96.89672,63.71698,97.59155,63.41912,97.80865z"/>
		</g>
		<g>
			<path class="st3" d="M62.73269,96.81596l-0.17934-0.24647c0.05453-0.03986,0.18406-0.31097-0.44574-2.13219l0.28737-0.09963
				C62.93667,95.90352,63.03159,96.59834,62.73269,96.81596z"/>
		</g>
		<g>
			<path class="st3" d="M64.01536,97.23495l-0.17934-0.24647c0.05453-0.03985,0.18406-0.31097-0.44574-2.13219l0.28737-0.09963
				C64.21935,96.32251,64.31426,97.01733,64.01536,97.23495z"/>
		</g>
		<g>
			<path class="st3" d="M66.18269,98.96127l-0.17934-0.24647c0.05453-0.03933,0.18301-0.31044-0.44574-2.13219l0.28737-0.09964
				C66.38563,98.04934,66.48055,98.74417,66.18269,98.96127z"/>
		</g>
		<g>
			<path class="st3" d="M62.92514,99.20879l-0.23912-0.18774c0.70584-0.89829,1.32987-2.01158,1.13374-2.23812l0.22968-0.19927
				C64.50724,97.1112,63.3048,98.72634,62.92514,99.20879z"/>
		</g>
		<g>
			<path class="st3" d="M61.66239,97.41902c-0.00052-0.01102-0.0666-1.07921-0.26587-2.19775l0.29995-0.05349
				c0.20189,1.13689,0.26902,2.22187,0.27007,2.23235L61.66239,97.41902z"/>
		</g>
		<g>
			<path class="st3" d="M63.29903,102.1433l-0.17934-0.24647c0.05454-0.03933,0.18302-0.31044-0.44574-2.13219l0.28737-0.09963
				C63.50197,101.23138,63.59689,101.9262,63.29903,102.1433z"/>
		</g>
		<g>
			<path class="st3" d="M62.26125,102.27073l-0.17934-0.24647c0.05453-0.03933,0.18354-0.31044-0.44521-2.13219l0.28737-0.09963
				C62.46472,101.3588,62.55911,102.05363,62.26125,102.27073z"/>
		</g>
		<g>
			<path class="st3" d="M63.51718,101.93879c-0.00053-0.01049-0.06607-1.07868-0.26535-2.19722l0.29996-0.05349
				c0.20189,1.13689,0.26901,2.22186,0.26954,2.23288L63.51718,101.93879z"/>
		</g>
		<g>
			<path class="st3" d="M68.62637,98.38758l-0.17934-0.24647c0.05453-0.03933,0.18301-0.31044-0.44574-2.13219l0.28737-0.09963
				C68.82931,97.47565,68.92422,98.17048,68.62637,98.38758z"/>
		</g>
		<g>
			<path class="st3" d="M68.15756,98.16524l-0.1783-0.24647c0.05402-0.03933,0.18301-0.30992-0.44573-2.13219l0.28737-0.09963
				C68.36208,97.25384,68.45647,97.94866,68.15756,98.16524z"/>
		</g>
		<g>
			<path class="st3" d="M68.37781,99.93769l-0.17934-0.24647c0.05453-0.03985,0.18406-0.31097-0.44574-2.13219l0.28737-0.09964
				C68.58179,99.02525,68.67671,99.72007,68.37781,99.93769z"/>
		</g>
		<g>
			<path class="st3" d="M67.69609,99.35142l-0.30206-0.03776c0.00158-0.01311,0.16204-1.31938,0.0042-1.88677l0.29366-0.08181
				C67.86547,97.97173,67.70291,99.29531,67.69609,99.35142z"/>
		</g>
		<g>
			<path class="st3" d="M66.56339,98.15369l-0.17934-0.24646c0.05453-0.03933,0.18353-0.31045-0.44521-2.13219l0.28737-0.09964
				C66.76686,97.24178,66.86125,97.9366,66.56339,98.15369z"/>
		</g>
		<g>
			<path class="st3" d="M66.06941,99.55383l-0.23912-0.18773c0.70583-0.89829,1.32986-2.01159,1.13374-2.23812l0.22968-0.19927
				C67.65152,97.45678,66.44908,99.07191,66.06941,99.55383z"/>
		</g>
		<g>
			<path class="st3" d="M64.80667,97.7646c-0.00053-0.01101-0.0666-1.07921-0.26587-2.19774l0.29995-0.05349
				c0.2019,1.13689,0.26902,2.22186,0.27007,2.23235L64.80667,97.7646z"/>
		</g>
		<g>
			<path class="st3" d="M67.02119,98.82283l-0.30206-0.04195c0.00158-0.00944,0.13005-0.96489,0-1.90461l0.30206-0.04195
				C67.15649,97.81704,67.02644,98.78192,67.02119,98.82283z"/>
		</g>
		<g>
			<path class="st3" d="M55.62659,100.70069c-0.00708-0.05611-0.16964-1.37968,0.00446-2.00634l0.29314,0.0818
				c-0.15758,0.5674,0.00288,1.87367,0.00446,1.88678L55.62659,100.70069z"/>
		</g>
		<g>
			<path class="st3" d="M53.73877,99.74996c-0.00708-0.05611-0.16964-1.37969,0.00446-2.00634l0.29314,0.0818
				c-0.15758,0.5674,0.00288,1.87366,0.00446,1.88678L53.73877,99.74996z"/>
		</g>
		<g>
			<path class="st3" d="M56.75929,99.50349c-0.29864-0.21763-0.20399-0.91245,0.33771-2.47829l0.28737,0.09963
				c-0.6298,1.82123-0.50027,2.09234-0.44574,2.13219L56.75929,99.50349z"/>
		</g>
		<g>
			<path class="st3" d="M57.2538,100.90363c-0.37966-0.48244-1.5821-2.09759-1.12483-2.62513l0.23021,0.19927
				c-0.19639,0.22654,0.42791,1.33983,1.13374,2.23812L57.2538,100.90363z"/>
		</g>
		<g>
			<path class="st3" d="M57.37283,101.6404c-0.37966-0.48244-1.5821-2.09758-1.12483-2.62512l0.23021,0.19927
				c-0.19639,0.22654,0.42791,1.33983,1.13374,2.23812L57.37283,101.6404z"/>
		</g>
		<g>
			<path class="st3" d="M58.51654,99.11334l-0.30415-0.01783c0.00053-0.01101,0.06765-1.09599,0.26954-2.23288l0.29995,0.05349
				C58.58261,98.03571,58.51707,99.10285,58.51654,99.11334z"/>
		</g>
		<g>
			<path class="st3" d="M58.38229,101.72536l-0.30415-0.01888c0.00105-0.01049,0.06817-1.09547,0.27007-2.23235l0.29995,0.05349
				C58.44889,100.6472,58.38282,101.71435,58.38229,101.72536z"/>
		</g>
		<g>
			<path class="st3" d="M61.79139,99.73685l-0.17934-0.24647c0.05506-0.03985,0.18406-0.31044-0.44574-2.13219l0.28737-0.09964
				C61.99538,98.82493,62.0903,99.51975,61.79139,99.73685z"/>
		</g>
		<g>
			<path class="st3" d="M60.86111,100.70069l-0.30205-0.03776c0.00157-0.01311,0.16204-1.31938,0.0042-1.88678l0.29366-0.0818
				C61.03049,99.32101,60.86793,100.64458,60.86111,100.70069z"/>
		</g>
		<g>
			<path class="st3" d="M59.72894,99.50349l-0.17934-0.24647c0.05453-0.03933,0.18301-0.31044-0.44574-2.13219l0.28737-0.09963
				C59.93188,98.59157,60.0268,99.28639,59.72894,99.50349z"/>
		</g>
		<g>
			<path class="st3" d="M59.23444,100.90363l-0.23912-0.18774c0.70584-0.89829,1.32987-2.01158,1.13374-2.23812l0.22968-0.19927
				C60.81654,98.80605,59.6141,100.42119,59.23444,100.90363z"/>
		</g>
		<g>
			<path class="st3" d="M57.28841,100.37084c-0.00053-0.01101-0.0666-1.07921-0.26535-2.19774l0.29996-0.05349
				c0.20137,1.13689,0.26849,2.22186,0.26954,2.23235L57.28841,100.37084z"/>
		</g>
		<g>
			<path class="st3" d="M42.14149,86.29029c-0.29786-0.2171-0.20346-0.91193,0.33719-2.47829l0.28789,0.09963
				c-0.62901,1.82175-0.50027,2.09286-0.44574,2.13219L42.14149,86.29029z"/>
		</g>
		<g>
			<path class="st3" d="M40.26809,75.83069c-0.29864-0.2171-0.20399-0.91193,0.33719-2.47829l0.28789,0.09963
				c-0.62954,1.82175-0.5008,2.09286-0.44626,2.13219L40.26809,75.83069z"/>
		</g>
		<g>
			<path class="st3" d="M40.34963,77.34148c-0.00708-0.05611-0.16964-1.37969,0.00446-2.00634l0.29314,0.0818
				c-0.15758,0.5674,0.00288,1.87366,0.00446,1.88678L40.34963,77.34148z"/>
		</g>
		<g>
			<path class="st3" d="M40.9852,79.14802c-0.00708-0.05611-0.16964-1.37968,0.00446-2.00634l0.29314,0.0818
				c-0.15758,0.5674,0.00288,1.87367,0.00446,1.88678L40.9852,79.14802z"/>
		</g>
		<g>
			<path class="st3" d="M41.48233,76.14375c-0.29838-0.2171-0.20373-0.91193,0.33718-2.47829l0.2879,0.09963
				c-0.62954,1.82175-0.50054,2.09286-0.44574,2.13219L41.48233,76.14375z"/>
		</g>
		<g>
			<path class="st3" d="M41.19181,77.15007c-0.07682-0.16885-0.73992-1.66129-0.35318-2.21977l0.25014,0.17305
				c-0.21762,0.31464,0.11746,1.34455,0.37992,1.92034L41.19181,77.15007z"/>
		</g>
		<g>
			<path class="st3" d="M41.91862,77.5376c-0.07682-0.16833-0.73993-1.66129-0.35318-2.21925l0.25014,0.17305
				c-0.21788,0.31464,0.11747,1.34455,0.37992,1.92034L41.91862,77.5376z"/>
		</g>
		<g>
			<path class="st3" d="M42.07227,80.45953l-0.30363-0.01783c0.00052-0.01102,0.06739-1.09599,0.26954-2.23288l0.29995,0.05349
				C42.13913,79.38085,42.07306,80.44904,42.07227,80.45953z"/>
		</g>
		<g>
			<path class="st3" d="M41.29328,81.08304c-0.29838-0.2171-0.20373-0.91193,0.33718-2.47829l0.2879,0.09963
				c-0.62954,1.82175-0.50054,2.09286-0.44574,2.13219L41.29328,81.08304z"/>
		</g>
		<g>
			<path class="st3" d="M42.2233,82.04688c-0.00708-0.05611-0.16964-1.37968,0.00446-2.00634l0.29314,0.08181
				c-0.15758,0.5674,0.00288,1.87366,0.00446,1.88677L42.2233,82.04688z"/>
		</g>
		<g>
			<path class="st3" d="M41.67478,79.22144c-0.00708-0.05611-0.16964-1.37969,0.00446-2.00634l0.29314,0.0818
				c-0.15758,0.5674,0.00288,1.87366,0.00446,1.88678L41.67478,79.22144z"/>
		</g>
		<g>
			<path class="st3" d="M40.42436,79.50828c-0.00708-0.05611-0.16964-1.37968,0.00446-2.00634l0.29314,0.0818
				c-0.15758,0.5674,0.00288,1.87367,0.00446,1.88678L40.42436,79.50828z"/>
		</g>
		<g>
			<path class="st3" d="M41.64096,82.72912c-0.29865-0.2171-0.20399-0.91193,0.33718-2.47829l0.2879,0.09963
				c-0.62954,1.82175-0.5008,2.09286-0.44626,2.13219L41.64096,82.72912z"/>
		</g>
		<g>
			<path class="st3" d="M42.1352,84.12978c-0.37967-0.48244-1.5821-2.09758-1.12483-2.62565l0.23021,0.19927
				c-0.19638,0.22654,0.42791,1.34035,1.13375,2.23865L42.1352,84.12978z"/>
		</g>
		<g>
			<path class="st3" d="M42.25424,84.86655c-0.37967-0.48244-1.5821-2.09758-1.12483-2.62513l0.23021,0.19927
				c-0.19639,0.22654,0.42791,1.33984,1.13374,2.23812L42.25424,84.86655z"/>
		</g>
		<g>
			<path class="st3" d="M42.17007,83.59647c-0.00079-0.01049-0.06686-1.07868-0.26587-2.19722l0.29996-0.05349
				c0.20215,1.13689,0.26901,2.22187,0.26954,2.23288L42.17007,83.59647z"/>
		</g>
		<g>
			<path class="st3" d="M42.01616,77.20198l-0.2879-0.09963c0.35239-1.02205,0.32224-1.24702,0.29314-1.29578l0.18826-0.23755
				C42.42755,75.72791,42.37695,76.15529,42.01616,77.20198z"/>
		</g>
		<g>
			<path class="st3" d="M42.851,85.49792l-0.28789-0.09963c0.35292-1.02152,0.32277-1.24649,0.2934-1.29578l0.18826-0.23755
				C43.26291,84.02438,43.21231,84.45123,42.851,85.49792z"/>
		</g>
		<g>
			<path class="st3" d="M43.36255,82.56708l-0.29314-0.0818c0.08023-0.28947,0.02412-0.94496-0.00446-1.17307l0.30205-0.03776
				C43.37146,81.31062,43.47556,82.16015,43.36255,82.56708z"/>
		</g>
		<g>
			<path class="st3" d="M42.96008,81.42284l-0.29314-0.0818c0.08023-0.28947,0.02412-0.94444-0.00446-1.17255l0.30205-0.03775
				C42.96899,80.16692,43.07334,81.01591,42.96008,81.42284z"/>
		</g>
		<g>
			<path class="st3" d="M42.43358,83.62793l-0.28789-0.09963c0.35292-1.021,0.3225-1.24649,0.29314-1.29578l0.188-0.23755
				C42.84576,82.15385,42.79515,82.58071,42.43358,83.62793z"/>
		</g>
		<g>
			<path class="st3" d="M43.04791,82.84029l-0.25014-0.17305c0.11668-0.16885-0.07761-0.79288-0.24568-1.16101l0.27688-0.12691
				C42.91052,81.55814,43.3046,82.46902,43.04791,82.84029z"/>
		</g>
		<g>
			<path class="st3" d="M42.58749,82.59435l-0.25014-0.17305c0.11694-0.16885-0.07735-0.79236-0.24541-1.16048l0.27688-0.12691
				C42.45036,81.31325,42.84471,82.22412,42.58749,82.59435z"/>
		</g>
		<g>
			<path class="st3" d="M42.29724,80.74218l-0.29995-0.05349c0.12533-0.70479,0.16728-1.37863,0.1678-1.38545l0.30363,0.01888
				C42.46714,79.34991,42.42571,80.01904,42.29724,80.74218z"/>
		</g>
		<g>
			<path class="st3" d="M42.55341,80.49991l-0.2879-0.09963c0.35239-1.02205,0.32224-1.24702,0.29314-1.29578l0.18826-0.23755
				C42.96479,79.02583,42.91419,79.45322,42.55341,80.49991z"/>
		</g>
		<g>
			<path class="st3" d="M42.1761,79.58746l-0.29314-0.08181c0.08023-0.28947,0.02386-0.94496-0.00446-1.17307l0.30205-0.03776
				C42.18502,78.33101,42.28937,79.18001,42.1761,79.58746z"/>
		</g>
		<g>
			<path class="st3" d="M41.2592,80.46425l-0.29314-0.0818c0.0805-0.28947,0.02412-0.94496-0.00446-1.17307l0.30205-0.03776
				C41.26811,79.20779,41.37273,80.05732,41.2592,80.46425z"/>
		</g>
		<g>
			<path class="st3" d="M43.31535,81.19473l-0.29314-0.0818c0.08023-0.28947,0.02412-0.94444-0.00446-1.17255l0.30205-0.03775
				C43.32427,79.9388,43.42862,80.7878,43.31535,81.19473z"/>
		</g>
		<g>
			<path class="st3" d="M42.33316,79.45689l-0.28789-0.09963c0.35318-1.021,0.32277-1.24649,0.2934-1.29578l0.18826-0.23756
				C42.74559,77.98333,42.69473,78.41071,42.33316,79.45689z"/>
		</g>
		<g>
			<path class="st3" d="M42.93543,78.68183l-0.23021-0.19927c0.0805-0.09282-0.2226-0.71423-0.71973-1.34665l0.23912-0.18774
				C42.54134,77.35039,43.2443,78.32524,42.93543,78.68183z"/>
		</g>
		<g>
			<path class="st3" d="M42.85991,78.21512l-0.23021-0.19927c0.08049-0.09282-0.22261-0.71423-0.71947-1.34665l0.23912-0.18774
				C42.46609,76.88367,43.16879,77.85853,42.85991,78.21512z"/>
		</g>
		<g>
			<path class="st3" d="M42.08223,78.75524c-0.12848-0.72314-0.1699-1.39227-0.17147-1.42006l0.30362-0.01888
				c0.00053,0.00682,0.04248,0.68067,0.16781,1.38546L42.08223,78.75524z"/>
		</g>
		<g>
			<path class="st3" d="M80.26953,86.11147l-0.17934-0.24647c0.05506-0.03986,0.18407-0.31045-0.44573-2.13219l0.28737-0.09963
				C80.47352,85.19955,80.56844,85.89437,80.26953,86.11147z"/>
		</g>
		<g>
			<path class="st3" d="M82.66759,76.34932l-0.17934-0.24647c0.05453-0.03933,0.18301-0.30992-0.44574-2.13219l0.28738-0.09964
				C82.87106,75.43791,82.96545,76.13274,82.66759,76.34932z"/>
		</g>
		<g>
			<path class="st3" d="M82.58579,77.8601l-0.30206-0.03776c0.00157-0.01311,0.16204-1.31938,0.0042-1.88677l0.29366-0.08181
				C82.75517,76.48042,82.59261,77.80399,82.58579,77.8601z"/>
		</g>
		<g>
			<path class="st3" d="M81.95022,79.66664l-0.30205-0.03775c0.00157-0.01311,0.16203-1.31938,0.0042-1.88678l0.29366-0.0818
				C82.1196,78.28696,81.95704,79.61053,81.95022,79.66664z"/>
		</g>
		<g>
			<path class="st3" d="M81.45309,76.66238l-0.17934-0.24646c0.05453-0.03986,0.18406-0.31097-0.44574-2.13219l0.28737-0.09964
				C81.65708,75.74993,81.752,76.44476,81.45309,76.66238z"/>
		</g>
		<g>
			<path class="st3" d="M81.74361,77.66869l-0.27688-0.1269c0.26273-0.57526,0.59781-1.60518,0.37966-1.91982l0.25066-0.17305
				C82.48353,76.00741,81.82069,77.49984,81.74361,77.66869z"/>
		</g>
		<g>
			<path class="st3" d="M81.0168,78.05675l-0.27689-0.12638c0.2622-0.57578,0.59781-1.60622,0.37966-1.92033l0.25066-0.17305
				C81.75672,76.39494,81.09388,77.88789,81.0168,78.05675z"/>
		</g>
		<g>
			<path class="st3" d="M80.86315,80.97868c-0.00053-0.01101-0.0666-1.07921-0.26587-2.19775l0.29995-0.05349
				c0.2019,1.13689,0.26902,2.22187,0.27007,2.23236L80.86315,80.97868z"/>
		</g>
		<g>
			<path class="st3" d="M81.6424,81.60166l-0.17934-0.24646c0.05453-0.03933,0.18301-0.31045-0.44574-2.13219l0.28737-0.09964
				C81.84534,80.68974,81.94025,81.38457,81.6424,81.60166z"/>
		</g>
		<g>
			<path class="st3" d="M80.71212,82.56551l-0.30205-0.03776c0.00157-0.01311,0.16203-1.31938,0.0042-1.88678l0.29366-0.0818
				C80.8815,81.18582,80.71894,82.50939,80.71212,82.56551z"/>
		</g>
		<g>
			<path class="st3" d="M81.26064,79.74006l-0.30206-0.03776c0.00157-0.01311,0.16204-1.31938,0.0042-1.88677l0.29366-0.08181
				C81.43002,78.36037,81.26746,79.68395,81.26064,79.74006z"/>
		</g>
		<g>
			<path class="st3" d="M82.51132,80.0269l-0.30205-0.03775c0.00157-0.01311,0.16203-1.31938,0.0042-1.88678l0.29366-0.0818
				C82.6807,78.64722,82.51814,79.97079,82.51132,80.0269z"/>
		</g>
		<g>
			<path class="st3" d="M81.29472,83.24774l-0.17934-0.24647c0.05506-0.03985,0.18407-0.31044-0.44573-2.13219l0.28737-0.09964
				C81.49872,82.33582,81.59363,83.03065,81.29472,83.24774z"/>
		</g>
		<g>
			<path class="st3" d="M80.80022,84.64841l-0.23913-0.18774c0.70583-0.89829,1.32986-2.01211,1.13374-2.23865l0.23074-0.19926
				C82.3818,82.55082,81.17989,84.16596,80.80022,84.64841z"/>
		</g>
		<g>
			<path class="st3" d="M80.15678,84.68774L79.91766,84.5c0.70583-0.89829,1.32986-2.01158,1.13374-2.23812l0.22968-0.19927
				C81.73889,82.59068,80.53645,84.20582,80.15678,84.68774z"/>
		</g>
		<g>
			<path class="st3" d="M80.76561,84.11562l-0.30415-0.01888c0.00105-0.01049,0.06817-1.09547,0.26954-2.23235l0.29995,0.05349
				C80.83221,83.03642,80.76614,84.10461,80.76561,84.11562z"/>
		</g>
		<g>
			<path class="st3" d="M80.91978,77.72061c-0.36183-1.04669-0.41218-1.47408-0.19403-1.63297l0.17934,0.24647
				c-0.02045,0.04038-0.05087,0.26534,0.30206,1.28687L80.91978,77.72061z"/>
		</g>
		<g>
			<path class="st3" d="M79.56055,85.31963c-0.36183-1.04722-0.4127-1.4746-0.1935-1.63297l0.17829,0.24647
				c-0.01993,0.04038-0.04982,0.26534,0.30257,1.28687L79.56055,85.31963z"/>
		</g>
		<g>
			<path class="st3" d="M79.57261,83.08571c-0.11327-0.40746-0.00891-1.25698-0.0042-1.29264l0.30206,0.03776
				c-0.02832,0.22811-0.08495,0.88361-0.0042,1.17307L79.57261,83.08571z"/>
		</g>
		<g>
			<path class="st3" d="M79.97535,81.94147c-0.11327-0.40693-0.00892-1.25645-0.0042-1.29211l0.30205,0.03776
				c-0.02831,0.22811-0.08495,0.88361-0.0042,1.17255L79.97535,81.94147z"/>
		</g>
		<g>
			<path class="st3" d="M80.50237,84.14603c-0.36183-1.04617-0.4127-1.47355-0.19403-1.63297l0.17934,0.24647
				c-0.02045,0.04038-0.05087,0.26587,0.30206,1.28687L80.50237,84.14603z"/>
		</g>
		<g>
			<path class="st3" d="M79.88725,83.35892c-0.25695-0.37128,0.1374-1.28215,0.2192-1.46097l0.27688,0.1269
				c-0.20032,0.43945-0.35134,1.00842-0.24541,1.16102L79.88725,83.35892z"/>
		</g>
		<g>
			<path class="st3" d="M80.34766,83.11298c-0.25695-0.37022,0.1374-1.28162,0.2192-1.46044l0.27688,0.1269
				c-0.20032,0.43945-0.35134,1.00789-0.24541,1.16049L80.34766,83.11298z"/>
		</g>
		<g>
			<path class="st3" d="M80.63818,81.26081c-0.12848-0.72314-0.16991-1.39227-0.17148-1.42059l0.30415-0.01783
				c0.00053,0.00629,0.04195,0.68015,0.16728,1.38493L80.63818,81.26081z"/>
		</g>
		<g>
			<path class="st3" d="M80.38228,81.01854c-0.36183-1.0467-0.41218-1.47408-0.19403-1.63297l0.17934,0.24647
				c-0.02045,0.04037-0.05034,0.26587,0.30206,1.28687L80.38228,81.01854z"/>
		</g>
		<g>
			<path class="st3" d="M80.75932,80.10609c-0.11327-0.40746-0.00891-1.25697-0.0042-1.29263l0.30206,0.03776
				c-0.02832,0.22811-0.08495,0.88361-0.0042,1.17307L80.75932,80.10609z"/>
		</g>
		<g>
			<path class="st3" d="M81.67596,80.98288c-0.11327-0.40694-0.00892-1.25645-0.0042-1.29264l0.30205,0.03776
				c-0.02831,0.22811-0.08495,0.88413-0.00419,1.17307L81.67596,80.98288z"/>
		</g>
		<g>
			<path class="st3" d="M79.6198,81.71336c-0.11327-0.40694-0.00891-1.25645-0.0042-1.29211l0.30206,0.03776
				c-0.02832,0.22811-0.08495,0.88361-0.0042,1.17255L79.6198,81.71336z"/>
		</g>
		<g>
			<path class="st3" d="M80.60252,79.97552c-0.35712-1.03307-0.41008-1.47513-0.19402-1.63297l0.17934,0.24647
				c-0.02045,0.04037-0.05087,0.26587,0.30206,1.28687L80.60252,79.97552z"/>
		</g>
		<g>
			<path class="st3" d="M80.00052,79.20045c-0.30939-0.35659,0.3933-1.33144,0.71003-1.73365l0.23913,0.18773
				c-0.4966,0.63242-0.79971,1.25384-0.71947,1.34665L80.00052,79.20045z"/>
		</g>
		<g>
			<path class="st3" d="M80.07551,78.73374c-0.30887-0.35659,0.39382-1.33144,0.71056-1.73365l0.23912,0.18774
				c-0.4966,0.63242-0.80022,1.25383-0.71999,1.34665L80.07551,78.73374z"/>
		</g>
		<g>
			<path class="st3" d="M80.85319,79.27387l-0.29996-0.05349c0.12533-0.70479,0.16676-1.37864,0.16728-1.38493l0.30415,0.01783
				C81.02309,77.8816,80.98166,78.55073,80.85319,79.27387z"/>
		</g>
		<g>
			<path class="st3" d="M63.76679,99.92249l-0.17934-0.24647c0.05454-0.03986,0.18406-0.31097-0.44574-2.13219l0.28737-0.09963
				C63.97078,99.01003,64.0657,99.70486,63.76679,99.92249z"/>
		</g>
		<g>
			<path class="st3" d="M62.83704,100.88632l-0.30205-0.03775c0.00157-0.01311,0.16204-1.31938,0.00419-1.88678l0.29366-0.0818
				C63.00642,99.50664,62.84386,100.83022,62.83704,100.88632z"/>
		</g>
		<g>
			<path class="st3" d="M61.70434,99.68861L61.525,99.44214c0.05453-0.03933,0.18301-0.31044-0.44574-2.13219l0.28737-0.09963
				C61.90728,98.77668,62.0022,99.4715,61.70434,99.68861z"/>
		</g>
		<g>
			<path class="st3" d="M61.20984,101.08875l-0.23912-0.18774c0.70584-0.89829,1.32987-2.01158,1.13374-2.23812l0.22969-0.19927
				C62.79194,98.99116,61.5895,100.6063,61.20984,101.08875z"/>
		</g>
		<g>
			<path class="st3" d="M59.94709,99.29898c-0.00053-0.01049-0.06607-1.07868-0.26535-2.19722l0.29996-0.05349
				c0.20189,1.13689,0.26901,2.22186,0.26954,2.23288L59.94709,99.29898z"/>
		</g>
		<g>
			<path class="st3" d="M64.84862,100.03366l-0.17934-0.24647c0.05453-0.03933,0.18301-0.30992-0.44574-2.13219l0.28737-0.09964
				C65.05209,99.12225,65.14648,99.81709,64.84862,100.03366z"/>
		</g>
		<g>
			<path class="st3" d="M64.35412,101.43432l-0.23913-0.18774c0.70584-0.89828,1.32987-2.01211,1.13374-2.23864l0.22969-0.19927
				C65.93569,99.33674,64.73378,100.95187,64.35412,101.43432z"/>
		</g>
		<g>
			<path class="st3" d="M64.67505,101.6404l-0.23913-0.18773c0.70584-0.89829,1.33039-2.01158,1.13427-2.23812l0.22968-0.19927
				C66.25768,99.54282,65.05471,101.15796,64.67505,101.6404z"/>
		</g>
		<g>
			<path class="st3" d="M59.35977,102.48888l-0.17934-0.24646c0.05453-0.03933,0.18406-0.31097-0.44574-2.13272l0.28737-0.09963
				C59.56376,101.57643,59.65815,102.27126,59.35977,102.48888z"/>
		</g>
		<g>
			<path class="st3" d="M59.57844,102.28436c-0.00052-0.01101-0.0666-1.07921-0.26587-2.19774l0.29996-0.05349
				c0.20189,1.13689,0.26901,2.22186,0.27006,2.23235L59.57844,102.28436z"/>
		</g>
		<g>
			<path class="st3" d="M60.41485,101.77937l-0.23912-0.18774c0.70584-0.89829,1.33039-2.01158,1.13427-2.23812l0.22969-0.19927
				C61.99748,99.68231,60.79452,101.29745,60.41485,101.77937z"/>
		</g>
		<g>
			<path class="st3" d="M60.73631,101.98598l-0.23912-0.18774c0.70584-0.89829,1.32987-2.01158,1.13374-2.23812l0.22969-0.19927
				C62.31841,99.8884,61.11597,101.50354,60.73631,101.98598z"/>
		</g>
		<g>
			<path class="st3" d="M66.37724,101.29273l-0.29261-0.0839c0.31673-1.09756,0.47615-2.36398,0.20923-2.4998l0.13844-0.27164
				C67.05423,98.75465,66.54714,100.70331,66.37724,101.29273z"/>
		</g>
		<g>
			<path class="st3" d="M63.09137,99.64403c-0.00052-0.01048-0.06607-1.07868-0.26534-2.19721l0.29995-0.05349
				c0.20189,1.13689,0.26902,2.22186,0.26954,2.23287L63.09137,99.64403z"/>
		</g>
		<g>
			<path class="st3" d="M65.30589,100.70279l-0.30205-0.04195c0.00157-0.00944,0.13005-0.96489,0-1.90461l0.30205-0.04195
				C65.44118,99.697,65.31114,100.66188,65.30589,100.70279z"/>
		</g>
		<g>
			
				<rect x="50.4803" y="80.49727" transform="matrix(0.56104 -0.82779 0.82779 0.56104 -44.45148 77.47306)" class="st3" width="0.68592" height="0.30471"/>
		</g>
		<g>
			
				<rect x="50.66223" y="80.15107" transform="matrix(0.5892 -0.80799 0.80799 0.5892 -43.56525 74.92023)" class="st3" width="2.46709" height="0.30439"/>
		</g>
		<g>
			
				<rect x="51.03448" y="80.44377" transform="matrix(0.52659 -0.85012 0.85012 0.52659 -43.59925 82.89935)" class="st3" width="3.19747" height="0.30472"/>
		</g>
		<g>
			
				<rect x="52.33117" y="81.09167" transform="matrix(0.55072 -0.83469 0.83469 0.55072 -43.93588 80.86198)" class="st3" width="1.63085" height="0.3047"/>
		</g>
		<g>
			
				<rect x="53.93588" y="79.14171" transform="matrix(0.66543 -0.74646 0.74646 0.66543 -40.96031 67.20039)" class="st3" width="1.09978" height="0.30419"/>
		</g>
		<g>
			
				<rect x="53.76319" y="80.19" transform="matrix(0.55867 -0.82939 0.82939 0.55867 -42.41704 80.96957)" class="st3" width="2.22311" height="0.30412"/>
		</g>
		<g>
			
				<rect x="56.06486" y="78.36268" transform="matrix(0.79835 -0.6022 0.6022 0.79835 -35.93003 49.73257)" class="st3" width="0.45623" height="0.30478"/>
		</g>
		<g>
			
				<rect x="54.48884" y="81.07336" transform="matrix(0.6817 -0.73163 0.73163 0.6817 -41.90798 66.12247)" class="st3" width="1.10217" height="0.30462"/>
		</g>
		<g>
			
				<rect x="55.98489" y="79.53239" transform="matrix(0.7887 -0.61477 0.61477 0.7887 -37.00007 51.71684)" class="st3" width="1.50161" height="0.30468"/>
		</g>
		<g>
			
				<rect x="56.16083" y="78.57527" transform="matrix(0.73744 -0.67541 0.67541 0.73744 -38.20656 59.17183)" class="st3" width="1.68618" height="0.30435"/>
		</g>
		<g>
			<polygon class="st3" points="54.93439,79.67451 54.73198,79.44692 55.56026,78.70857 55.76268,78.93616 			"/>
		</g>
		<g>
			
				<rect x="55.60924" y="80.66602" transform="matrix(0.68794 -0.72577 0.72577 0.68794 -41.08023 66.09623)" class="st3" width="1.422" height="0.30491"/>
		</g>
		<g>
			
				<rect x="55.80651" y="79.45473" transform="matrix(0.56184 -0.82725 0.82725 0.56184 -40.59304 82.57424)" class="st3" width="3.69375" height="0.30427"/>
		</g>
		<g>
			
				<rect x="57.10366" y="79.61676" transform="matrix(0.58838 -0.80859 0.80859 0.58838 -40.27215 80.42834)" class="st3" width="3.51273" height="0.30481"/>
		</g>
		<g>
			
				<rect x="58.42673" y="78.00368" transform="matrix(0.54354 -0.83939 0.83939 0.54354 -38.51593 85.48574)" class="st3" width="1.82936" height="0.30487"/>
		</g>
		<g>
			
				<rect x="58.30426" y="80.92535" transform="matrix(0.65362 -0.75682 0.75682 0.65362 -41.01111 72.5484)" class="st3" width="0.89493" height="0.30487"/>
		</g>
		<g>
			<polygon class="st3" points="59.89046,81.3982 59.59155,81.34261 59.73891,80.54343 60.03782,80.59902 			"/>
		</g>
		<g>
			<polygon class="st3" points="60.14426,81.62159 59.89465,81.44749 60.44632,80.65356 60.69593,80.82766 			"/>
		</g>
		<g>
			
				<rect x="59.26295" y="79.58185" transform="matrix(0.59613 -0.80289 0.80289 0.59613 -39.79628 80.35316)" class="st3" width="1.41967" height="0.30436"/>
		</g>
		<g>
			
				<rect x="60.96324" y="79.54383" transform="matrix(0.44032 -0.89784 0.89784 0.44032 -37.20773 99.70373)" class="st3" width="0.81099" height="0.30488"/>
		</g>
		<g>
			<polygon class="st3" points="60.59472,79.26495 60.36189,79.06883 61.19306,78.08454 61.42589,78.28066 			"/>
		</g>
		<g>
			<polygon class="st3" points="60.30788,78.28434 60.21034,77.99592 60.81654,77.78983 60.91408,78.07825 			"/>
		</g>
		<g>
			
				<rect x="61.05103" y="78.62905" transform="matrix(0.69845 -0.71566 0.71566 0.69845 -37.81786 67.81052)" class="st3" width="1.01349" height="0.30482"/>
		</g>
		<g>
			
				<rect x="71.94363" y="80.30659" transform="matrix(0.82779 -0.56103 0.56103 0.82779 -32.83177 54.33664)" class="st3" width="0.30427" height="0.68607"/>
		</g>
		<g>
			
				<rect x="70.87071" y="79.06972" transform="matrix(0.80814 -0.58899 0.58899 0.80814 -33.67143 57.23924)" class="st3" width="0.30481" height="2.46709"/>
		</g>
		<g>
			
				<rect x="70.13346" y="78.99733" transform="matrix(0.85032 -0.52626 0.52626 0.85032 -31.89456 49.05246)" class="st3" width="0.30472" height="3.19761"/>
		</g>
		<g>
			
				<rect x="69.62031" y="80.42853" transform="matrix(0.83466 -0.55076 0.55076 0.83466 -33.2101 51.86065)" class="st3" width="0.30427" height="1.631"/>
		</g>
		<g>
			
				<rect x="68.28084" y="78.74391" transform="matrix(0.7467 -0.66516 0.66516 0.7467 -35.40906 65.60439)" class="st3" width="0.30458" height="1.09978"/>
		</g>
		<g>
			<polygon class="st3" points="68.53984,81.34838 67.29597,79.50565 67.54874,79.33575 68.7926,81.17847 			"/>
		</g>
		<g>
			
				<rect x="66.47367" y="78.28685" transform="matrix(0.60202 -0.79848 0.79848 0.60202 -36.17695 84.44705)" class="st3" width="0.30478" height="0.45644"/>
		</g>
		<g>
			<polygon class="st3" points="68.1434,81.73277 67.39246,80.92625 67.61481,80.71858 68.36575,81.5251 			"/>
		</g>
		<g>
			<polygon class="st3" points="66.68139,80.26656 65.4973,79.34309 65.68504,79.10292 66.86912,80.02638 			"/>
		</g>
		<g>
			
				<rect x="65.76307" y="77.88455" transform="matrix(0.67564 -0.73723 0.73723 0.67564 -36.6601 74.13083)" class="st3" width="0.30435" height="1.68579"/>
		</g>
		<g>
			<polygon class="st3" points="67.98451,79.67451 67.15649,78.93616 67.3589,78.70857 68.18693,79.44692 			"/>
		</g>
		<g>
			
				<rect x="66.4466" y="80.10757" transform="matrix(0.7262 -0.68748 0.68748 0.7262 -37.32646 67.91315)" class="st3" width="0.30491" height="1.42182"/>
		</g>
		<g>
			
				<rect x="65.11338" y="77.75999" transform="matrix(0.82739 -0.56163 0.56163 0.82739 -33.4439 50.3957)" class="st3" width="0.30427" height="3.69375"/>
		</g>
		<g>
			
				<rect x="63.90648" y="78.0128" transform="matrix(0.80808 -0.58908 0.58908 0.80808 -34.69579 53.04512)" class="st3" width="0.30481" height="3.51273"/>
		</g>
		<g>
			
				<rect x="63.42505" y="77.24144" transform="matrix(0.83904 -0.54407 0.54407 0.83904 -32.289 47.17075)" class="st3" width="0.30487" height="1.82936"/>
		</g>
		<g>
			
				<rect x="64.01473" y="80.63033" transform="matrix(0.75706 -0.65335 0.65335 0.75706 -37.38303 61.62034)" class="st3" width="0.30487" height="0.89493"/>
		</g>
		<g>
			<polygon class="st3" points="63.02844,81.3982 62.88109,80.59902 63.17999,80.54343 63.32735,81.34261 			"/>
		</g>
		<g>
			<polygon class="st3" points="62.77464,81.62159 62.22297,80.82766 62.47258,80.65356 63.02425,81.44749 			"/>
		</g>
		<g>
			
				<rect x="62.79393" y="79.02419" transform="matrix(0.8034 -0.59544 0.59544 0.8034 -35.1016 53.1563)" class="st3" width="0.30436" height="1.41967"/>
		</g>
		<g>
			
				<rect x="61.39773" y="79.29078" transform="matrix(0.89815 -0.4397 0.4397 0.89815 -28.7731 35.18081)" class="st3" width="0.30488" height="0.81099"/>
		</g>
		<g>
			<polygon class="st3" points="62.3247,79.26495 61.49301,78.28066 61.72585,78.08454 62.55754,79.06883 			"/>
		</g>
		<g>
			
				<rect x="61.20871" y="78.27472" transform="matrix(0.7161 -0.69799 0.69799 0.7161 -37.56879 65.19547)" class="st3" width="0.30482" height="1.01349"/>
		</g>
	</g>
	<path class="st1" d="M38.97095,59.51818c-3.30377-1.06528-3.30377,0.93708-2.83391,2.82218
		c0.46986,1.8851,1.27533,7.59053,1.27533,7.59053s-1.07508,4.75896,1.20821,4.91609
		c2.28328,0.15714,2.85188-11.42699,2.85188-11.42699L38.97095,59.51818z"/>
	<path class="st1" d="M83.67922,59.78887c3.30377-1.06528,3.30377,0.93708,2.83392,2.82217s-1.27533,7.59053-1.27533,7.59053
		s1.07508,4.75896-1.20821,4.9161c-2.28329,0.15713-2.85189-11.427-2.85189-11.427L83.67922,59.78887z"/>
	<path class="st4" d="M84.54234,61.65643c-0.03165,0.08864-0.16199,3.21746-0.16843,3.12356
		c-0.21612-3.15302-0.21606-25.23112-7.55481-30.33244c-5.07111-3.52504-14.4985-0.98447-14.4985-0.98447
		s-9.67812-2.60395-13.33504,1.07396c-10.86681,5.54881-9.15329,24.56508-9.35835,27.38689
		c-0.00661,0.09091-0.13068,0.1082-0.16634,0.02431l-1.25972-2.96357c-0.00417-0.0098-0.00512-0.01789-0.00678-0.0284
		c-0.61967-3.90206-0.56561-14.16585,2.46798-21.4882c0.00415-0.01001-0.11386-6.08226-0.11386-6.0931v-3.73511
		c0-0.09568,0.13152-0.12263,0.16689-0.03373c0.2463,0.61902,1.60572,4.8052,1.8264,4.9682
		c0.31123,0.22987,0.93368,0.30649,1.08929-0.68961c0.12093-0.77408-0.33323-5.61844-0.1387-6.35823
		c0.02294-0.08726,0.14545-0.08575,0.16675,0.00193c0.15091,0.62111,0.52969,1.91942,1.16874,2.49153
		c0.85588,0.76623,1.8084,1.62265,1.8084,0.85642c0-0.6696-0.02446-4.43314,0.17037-5.07842
		c0.01963-0.06502,0.10227-0.0832,0.14772-0.03272c0.27568,0.30616,1.01525,1.16719,1.14139,1.72616
		c0.12643,0.5603,1.65112,2.27672,1.96377,2.71376c0.04435,0.06199-0.54027-0.45686-0.5256-0.53165
		c0.16853-0.8592,0.85727-4.30861,1.12945-4.71067c0.31123-0.45974,1.47833,1.14935,1.63395,1.68571
		c0.12288,0.42353,0.58535-0.25179,0.77449-0.55466c0.03627-0.05807,0.12128-0.05145,0.1508,0.01032l0.55304,1.15733
		c0,0,0.42538-1.88508,0.93776-2.78949c0.03245-0.05729,0.11497-0.05843,0.14899-0.00205
		c0.64479,1.06858,1.46538,3.3847,2.12111,3.92909c0.05635,0.04679,0.13799,0.00612,0.14041-0.06709
		c0.06522-1.96784,1.35283-3.16552,1.70089-3.45419c0.04427-0.03672,0.10842-0.01874,0.13208,0.03369l0.57647,1.27732
		l0.75862-3.51236c0.02035-0.0942,0.15608-0.09017,0.17079,0.00508l0.82591,5.34624l0.43083-2.37172
		c0.01663-0.09154,0.14604-0.09644,0.16955-0.00642l0.60096,2.30152c0,0,0.37584-3.80156,0.45365-4.56779
		c0.0778-0.76623,0.94688,2.80545,0.94688,2.80545s0.46684-0.84286,0.54464-1.45584
		c0.06996-0.55115,1.52377,2.49051,1.81634,3.10973c0.02557,0.05413,0.0938,0.06763,0.13639,0.02557
		c0.35783-0.35333,1.7247-1.76436,1.85981-2.8288c0.15561-1.22597,1.01149,0.76623,1.01149,1.07273
		c0,0.30649,0.54465,0,0.93368-0.45974c0.38904-0.45974-0.31123,0.68961,0,0.91948c0.31123,0.22987,2.64543-1.76233,2.95666-2.22207
		c0.31123-0.45974,0.88346,5.04157,0.80566,6.19092c-0.07781,1.14935,2.69566-3.66236,2.85126-4.50521
		c0.13882-0.75185,0.47706,5.00193,0.63911,5.91479c0.0126,0.071,0.51937-1.46919,0.56794-1.52249
		c0.48395-0.53101,2.29426-2.54841,2.29426-3.01308c0-0.53636-1.86202,7.39672-1.16176,7.77983
		c0.46434,0.25404,3.33162,0.27539,3.63789-0.44492c0.03917-0.09211,0.17622-0.05736,0.16573,0.04218
		c-0.08626,0.81776,0.45721,6.48103,0.71597,7.09263c0.38895,0.91926,2.10211-3.47295,2.10318,18.35155
		c0,0.01001-0.00172-0.00943-0.00509,0L84.54234,61.65643z"/>
	<path class="st5" d="M41.87056,55.8755c1.54382-2.93798,6.04104-3.54775,8.99444-3.65862
		c2.9534-0.11087,4.29585,0.63798,4.29585,0.63798s1.61095,1.41306-0.93972,1.41306
		C45.49518,52.85486,41.87056,55.8755,41.87056,55.8755z"/>
	<path class="st5" d="M82.9145,55.8755c-1.54382-2.93798-6.04104-3.54775-8.99444-3.65862s-4.29585,0.63798-4.29585,0.63798
		s-1.61095,1.41306,0.93972,1.41306C79.28987,52.85486,82.9145,55.8755,82.9145,55.8755z"/>
	<path class="st6" d="M69.70409,84.71823c-2.55066,1.59277-0.89497,2.95904-6.08579,2.07454
		c-5.19082-0.88451-6.89126-0.10603-8.6812-0.898c-1.78994-0.79198-1.55758-2.33908-1.55758-2.33908
		s3.61601-0.74325,5.58494-1.00764c1.96893-0.2644,1.96893,0.36208,4.3406,0.45158c2.37167,0.08949,6.39903,1.49653,6.39903,1.49653
		"/>
	<path class="st7" d="M55.85882,58.72593c0.947,0.80232-2.06608,2.2467-4.62413,2.2467c-2.54886,0-5.66537-1.58029-4.61827-2.2467
		c1.40761-0.89587,2.06941-1.08291,4.61827-1.08291C53.79274,57.64302,54.91911,57.92978,55.85882,58.72593z"/>
	<ellipse class="st8" cx="51.33466" cy="59.30801" rx="2.04401" ry="1.66481"/>
	<path class="st9" d="M56.22383,58.74596c-4.22893-1.84587-10.14622,0.05999-10.14744,0.05844
		c-0.40789-0.85357,1.67176-2.49271,5.01971-2.55338C54.45507,56.19095,56.22478,58.74436,56.22383,58.74596z"/>
	<path class="st10" d="M45.59587,58.91376c3.32138-1.26404,7.54253-1.37807,10.90744-0.23493
		c-0.0428,0.10967-0.08844,0.21406-0.14283,0.31441c-3.26957-1.10239-7.39164-0.9861-10.61917,0.23376
		C45.68359,59.12857,45.64293,59.02169,45.59587,58.91376z"/>
	<path class="st7" d="M67.64883,58.67256c-0.947,0.80232,2.06609,2.2467,4.62413,2.2467c2.54886,0,5.66537-1.58028,4.61827-2.2467
		c-1.40762-0.89587-2.06941-1.08291-4.61827-1.08291C69.71492,57.58965,68.58855,57.87641,67.64883,58.67256z"/>
	<ellipse class="st8" cx="72.173" cy="59.25464" rx="2.04401" ry="1.66481"/>
	<path class="st9" d="M67.28383,58.69258c4.22894-1.84587,10.14622,0.05999,10.14744,0.05844
		c0.4079-0.85357-1.67175-2.49271-5.01971-2.55338C69.05259,56.13758,67.28288,58.69099,67.28383,58.69258z"/>
	<path class="st10" d="M77.91179,58.86039c-3.32139-1.26404-7.54253-1.37808-10.90743-0.23493
		c0.04279,0.10967,0.08843,0.21406,0.14283,0.31441c3.26957-1.10239,7.39165-0.9861,10.61917,0.23376
		C77.82407,59.0752,77.86472,58.96832,77.91179,58.86039z"/>
	<path class="st11" d="M50.59651,82.33307c0.6124,0.55528,1.3049,0.87724,2.02598,1.06808
		c1.59724,0.42271,3.33474,0.20205,4.65272,0.44869c1.913,0.35799,1.24786,1.29262,6.9055,0.64631s5.29964-0.25547,7.00008-0.94312"
		/>
	<g id="_x38__14_">
		<path class="st12" d="M67.47792,70.17494c-0.47613,0-0.92415,0.10597-1.31821,0.28993l-0.73522-7.49753
			c0-2.10799-1.46939-3.81762-3.28241-3.81762c-1.81318,0-3.28275,1.70963-3.28275,3.81762l-0.67254,7.19622
			c-0.2158-0.0467-0.44016-0.07431-0.67202-0.07431c-1.56072,0-2.15295,1.19551-2.15295,2.57782
			c0,1.3823,1.26495,2.50311,2.82497,2.50311c0.42007,0,2.78219,1.56464,3.95529,1.56464
			c3.00362-0.06422,3.96788-1.56464,4.60063-1.56464c1.56106,0,2.82513-1.12081,2.82513-2.50311
			C69.56783,71.28477,69.03795,70.17494,67.47792,70.17494z"/>
		<path class="st1" d="M66.92213,70.78292c-0.41785,0-0.81087,0.10011-1.15607,0.27665l-0.69218-11.02405
			c0-2.01006-1.28904-3.63878-2.87971-3.63878c-1.59084,0-2.87954,1.62872-2.87954,3.63878l-0.63317,10.73079
			c-0.18953-0.04445-0.38645-0.07021-0.59046-0.07021c-1.36842,0-1.84527,1.14397-1.84527,2.46117
			c0,1.31802,1.11003,2.38638,2.47895,2.38638c0.36852,0,0.34533,1.49123,3.46949,1.49123s3.48101-1.49123,4.03676-1.49123
			c1.36826,0,2.47798-1.06836,2.47798-2.38638C68.70891,71.84008,68.29089,70.78292,66.92213,70.78292z"/>
	</g>
	<path class="st13" d="M57.36563,73.99781c0.84774-0.84774,2.65098-0.16923,2.67308,0.23351
		c0.02209,0.40273-1.92433-0.26849-1.92433-0.26849s-0.25055-0.17899-0.80775,0.15662"/>
	<path class="st13" d="M67.12045,73.99781c-0.84774-0.84774-2.65098-0.16923-2.67308,0.23351
		c-0.02209,0.40273,1.92433-0.26849,1.92433-0.26849s0.25055-0.17899,0.80775,0.15662"/>
</g>
</svg>
