<?xml version="1.0" encoding="utf-8"?>
<!-- Generator: Adobe Illustrator 21.0.0, SVG Export Plug-In . SVG Version: 6.00 Build 0)  -->
<svg version="1.1" id="Layer_1" xmlns="http://www.w3.org/2000/svg" xmlns:xlink="http://www.w3.org/1999/xlink" x="0px" y="0px"
	 viewBox="0 0 124.72 126.11" style="enable-background:new 0 0 124.72 126.11;" xml:space="preserve">
<style type="text/css">
	.st0{fill:#42235E;}
	.st1{fill:#F5DFD0;}
	.st2{opacity:0.23;fill:#CB898C;}
	.st3{fill:#302821;}
	.st4{fill:#231E19;}
	.st5{fill:#221F1D;}
	.st6{fill:#2B241E;}
	.st7{opacity:0.2;fill:#221E20;}
	.st8{opacity:0.79;fill:#1D1D1B;}
	.st9{opacity:0.09;fill:none;stroke:#221E20;stroke-width:0.5;stroke-miterlimit:10;}
	.st10{fill:#FFFFFF;}
	.st11{clip-path:url(#SVGID_2_);fill:#33B08B;}
	.st12{clip-path:url(#SVGID_4_);fill:#33B08B;}
	.st13{opacity:0.13;fill:url(#SVGID_5_);}
	.st14{opacity:0.13;fill:url(#SVGID_6_);}
</style>
<circle class="st0" cx="64.06499" cy="64.87285" r="55.07018"/>
<g>
	<path class="st1" d="M114.95234,117.93914"/>
	<path class="st1" d="M48.0368,42.05012c-4.57243,14.19859-5.17406,29.11914-1.68458,35.01516
		C49.84171,82.9613,56.941,92.46714,63.79964,92.46714c6.85863,0,10.82943-6.13667,12.39368-7.5806
		c1.56425-1.44393,7.82125-7.33995,6.49766-13.71729c-1.3236-6.37733,2.88785-12.51401,2.88785-12.51401L73.30547,27.12957
		l-18.41003,1.8049L48.0368,42.05012z"/>
	<path class="st2" d="M57.53854,77.45398c2.62193-0.66101,5.96096-0.50955,6.62268-0.26868
		c0.66172,0.24086,0.94098,0.54781,2.62141,0.03393c1.68044-0.51388,2.94363,0.25672,4.32746,0.02247
		s1.68466-0.25825,1.68466-0.25825c-3.12937,2.73045-3.98772,4.20419-7.95071,4.20293
		C60.88105,81.18513,59.18805,78.62773,57.53854,77.45398z"/>
	<path class="st3" d="M47.59457,50.29252c1.79924-0.87924,4.20245-0.81221,6.00735,0s6.94888,2.52687,6.76839,3.24883
		c-0.18049,0.72196-3.74659-0.18049-6.38556-1.26343s-4.63646-1.89515-6.39019-1.35368
		C46.65304,50.834,47.59457,50.29252,47.59457,50.29252z"/>
	<path class="st3" d="M79.56242,50.29252c-1.79923-0.87924-4.20245-0.81221-6.00735,0
		c-1.8049,0.81221-6.94888,2.52687-6.76839,3.24883c0.1805,0.72196,3.7466-0.18049,6.38556-1.26343
		c2.63897-1.08294,4.63646-1.89515,6.39019-1.35368C80.50396,50.834,79.56242,50.29252,79.56242,50.29252z"/>
	<path class="st4" d="M63.88989,25.74581c-1.26344,4.69275-8.12207,5.50496-11.19041,10.46845
		c-3.06834,4.96349-2.61711,16.96611-6.04643,20.9369c-3.42932,3.97079-1.24487,7.5001-1.08294,13.08556
		c0.16193,5.58546,5.31245,13.68719,8.92226,18.74094c3.60981,5.05373-4.96349,19.76371-17.1466,15.70267
		c-3.88055-2.9781-4.24153-4.51227-4.24153-4.51227s3.24883,2.9781,4.60251,1.35368
		c1.35368-1.62442-5.49294-18.56045-1.88313-23.43369c-2.70736,2.52686-3.24883,9.02452-3.24883,9.02452
		c-3.06834-18.59052,0-19.31248,2.88785-29.23946s-2.88785-16.78562,5.59521-25.44916s15.52218-14.43924,18.77101-12.63434
		C63.07768,21.59453,63.75176,23.4525,63.88989,25.74581z"/>
	<path class="st5" d="M64.8447,23.21894c5.27212-4.15128,16.28204,1.08294,19.35037,8.12207
		c3.06834,7.03913,10.82944,38.22585,12.27336,41.85473c1.44392,3.62888-4.51227,7.23869-3.79031,11.38998
		s4.81308,2.10572,5.17406,8.2424c0.36098,6.13667-4.33177,11.34918-4.33177,11.34918
		c1.26344-7.01741-4.51226-11.52968-4.51226-11.52968s1.08294,10.28796-2.70736,12.45385
		c-3.79031,2.16589-8.84404,3.06834-8.84404,3.06834c6.85864-9.02452-0.96262-11.79205,1.20327-21.29788
		s5.47479-10.94714,3.91058-16.39325c-1.5642-5.4461,1.51439-9.03925,1.51439-9.03925
		c-4.76317-4.22811-12.82508-19.7503-14.38934-25.04469c-1.56425-5.29439-8.38802-7.10625-8.38802-7.10625
		C62.23539,23.64009,64.8447,23.21894,64.8447,23.21894z"/>
	<path class="st6" d="M63.88989,25.74581c-1.26344,4.69275-8.12207,5.50496-11.19041,10.46845
		c-3.06834,4.96349-2.61711,16.96611-6.04643,20.9369c-3.42932,3.97079-1.24487,7.5001-1.08294,13.08556
		c0.03099,1.06909,0.34438,2.42654,0.85623,3.95824c2.16232,6.47063,5.14716,10.69628,8.06603,14.7827
		c3.60981,5.05373-4.96349,19.76371-17.1466,15.70267c-3.88055-2.9781-4.24153-4.51227-4.24153-4.51227
		s3.24883,2.9781,4.60251,1.35368c1.35368-1.62442-5.49294-18.56045-1.88313-23.43369
		c-2.70736,2.52686-3.24883,9.02452-3.24883,9.02452c-3.06834-18.59052,0-19.31248,2.88785-29.23946
		S63.75176,23.4525,63.88989,25.74581z"/>
	<path class="st6" d="M96.46843,73.19575c1.44392,3.62888-4.51227,7.23869-3.79031,11.38998s4.81308,2.10572,5.17406,8.2424
		c0.36098,6.13667-4.33177,11.34918-4.33177,11.34918c1.26344-7.01741-4.51226-11.52968-4.51226-11.52968
		s1.08294,10.28796-2.70736,12.45385c-3.79031,2.16589-8.84404,3.06834-8.84404,3.06834
		c6.85864-9.02452-0.96262-11.79205,1.20327-21.29788s5.47479-10.94714,3.91058-16.39325
		c-1.5642-5.4461,1.51439-9.03925,1.51439-9.03925c-4.76317-4.22811-12.82508-19.7503-14.38934-25.04469
		c-1.56425-5.29439-8.38802-7.10625-8.38802-7.10625C71.01926,24.30189,95.02451,69.56687,96.46843,73.19575z"/>
	<g id="_x38__15_">
		<path class="st7" d="M68.44781,68.22109c-0.34221,0-0.66422,0.10667-0.94745,0.29184l-0.52843-7.54668
			c0-2.12181-1.05611-3.84264-2.35921-3.84264c-1.30321,0-2.35945,1.72083-2.35945,3.84264l-0.48338,7.2434
			c-0.1551-0.047-0.31636-0.0748-0.48301-0.0748c-1.12175,0-1.54741,1.20335-1.54741,2.59471
			c0,1.39137,0.90917,2.51952,2.03042,2.51952c0.30193,0,0.58766-0.08379,0.84492-0.23054
			c0.4175,1.08276,1.15475,1.80544,1.99791,1.80544c0.91182,0,1.70139-0.84367,2.09417-2.07726
			c0.33908,0.31392,0.75771,0.50235,1.21249,0.50235c1.12199,0,2.03054-1.12815,2.03054-2.51952
			C69.94992,69.3382,69.56907,68.22109,68.44781,68.22109z"/>
		<path class="st1" d="M68.238,67.24989c-0.319,0-0.61904,0.09851-0.88257,0.27223L66.827,60.48924
			c0-1.97793-0.98409-3.58063-2.19846-3.58063c-1.21449,0-2.19832,1.6027-2.19832,3.58063l-0.48338,6.74431
			c-0.14469-0.04374-0.29502-0.06908-0.45077-0.06908c-1.04469,0-1.40873,1.12569-1.40873,2.42183
			c0,1.29696,0.84743,2.34825,1.8925,2.34825c0.28134,0,0.54713-0.07888,0.78681-0.21541
			c0.38902,1.0096,1.07645,1.68281,1.86189,1.68281c0.84969,0,1.58581-0.78643,1.95148-1.93541
			c0.31573,0.29226,0.70601,0.46801,1.13029,0.46801c1.04457,0,1.89175-1.05129,1.89175-2.34825
			C69.60207,68.29015,69.28295,67.24989,68.238,67.24989z"/>
	</g>
	<path class="st8" d="M49.60857,58.16642c0.85733-3.3842,3.3842-3.85798,5.86594-3.33907
		c2.48174,0.51891,4.4145,4.30921,4.4145,4.30921L49.60857,58.16642z"/>
	<path class="st8" d="M68.64281,59.13656c1.24839-3.58725,3.79782-4.80556,5.30943-4.87325
		c1.51161-0.06768,4.63259,1.97787,4.61755,3.91063C78.55474,60.10669,68.64281,59.13656,68.64281,59.13656z"/>
	<path class="st9" d="M56.58002,75.69954c1.71466,5.00564,14.57461,4.50928,17.32917,0"/>
	<g>
		<path class="st3" d="M49.96204,58.17394c0.7616-2.07812,1.82331-2.64719,4.09112-2.64719s5.53504,3.48948,5.83586,3.60981
			c-4.21144,1.26343-5.53504,0.90245-7.46027,0.6618S49.96204,58.17394,49.96204,58.17394z"/>
		<path class="st10" d="M49.96204,58.17394c1.08294-1.62442,2.46671-1.74474,4.09112-1.92523
			c1.62442-0.18049,5.53504,2.76752,5.83586,2.88785c-4.21144,1.26343-5.53504,1.62442-7.46027,1.38376
			C50.50351,60.27966,49.96204,58.17394,49.96204,58.17394z"/>
		<g>
			<defs>
				<path id="SVGID_1_" d="M49.96204,58.17394c1.08294-1.62442,2.46671-1.74474,4.09112-1.92523
					c1.62442-0.18049,5.53504,2.76752,5.83586,2.88785c-4.21144,1.26343-5.53504,1.62442-7.46027,1.38376
					C50.50351,60.27966,49.96204,58.17394,49.96204,58.17394z"/>
			</defs>
			<clipPath id="SVGID_2_">
				<use xlink:href="#SVGID_1_"  style="overflow:visible;"/>
			</clipPath>
			<path class="st11" d="M54.23722,60.82197H53.5588c-1.13698,0-2.06725-0.93026-2.06725-2.06725v-0.67841
				c0-1.13699,0.93026-2.06725,2.06725-2.06725h0.67842c1.13699,0,2.06725,0.93026,2.06725,2.06725v0.67841
				C56.30447,59.8917,55.37421,60.82197,54.23722,60.82197z"/>
		</g>
	</g>
	<g>
		<path class="st3" d="M78.56979,58.17394c-0.7616-2.07812-1.82331-2.64719-4.09112-2.64719
			c-2.26781,0-5.53504,3.48948-5.83586,3.60981c4.21144,1.26343,5.53504,0.90245,7.46027,0.6618
			S78.56979,58.17394,78.56979,58.17394z"/>
		<path class="st10" d="M78.56979,58.17394c-1.08295-1.62442-2.46671-1.74474-4.09112-1.92523
			c-1.62442-0.18049-5.53504,2.76752-5.83586,2.88785c4.21144,1.26343,5.53504,1.62442,7.46027,1.38376
			C78.02831,60.27966,78.56979,58.17394,78.56979,58.17394z"/>
		<g>
			<defs>
				<path id="SVGID_3_" d="M78.56979,58.17394c-1.08295-1.62442-2.46671-1.74474-4.09112-1.92523
					c-1.62442-0.18049-5.53504,2.76752-5.83586,2.88785c4.21144,1.26343,5.53504,1.62442,7.46027,1.38376
					C78.02831,60.27966,78.56979,58.17394,78.56979,58.17394z"/>
			</defs>
			<clipPath id="SVGID_4_">
				<use xlink:href="#SVGID_3_"  style="overflow:visible;"/>
			</clipPath>
			<path class="st12" d="M74.05395,60.82197h0.67841c1.13699,0,2.06725-0.93026,2.06725-2.06725v-0.67841
				c0-1.13699-0.93026-2.06725-2.06725-2.06725h-0.67841c-1.13699,0-2.06725,0.93026-2.06725,2.06725v0.67841
				C71.98669,59.8917,72.91696,60.82197,74.05395,60.82197z"/>
		</g>
	</g>
	
		<radialGradient id="SVGID_5_" cx="259.017" cy="-238.23621" r="11.519" gradientTransform="matrix(0.9026 -0.43049 0.21851 0.45816 -127.9355 293.63495)" gradientUnits="userSpaceOnUse">
		<stop  offset="0" style="stop-color:#CC569A;stop-opacity:0.95"/>
		<stop  offset="0.23435" style="stop-color:#EC698E;stop-opacity:0.65124"/>
		<stop  offset="0.34514" style="stop-color:#E4578F;stop-opacity:0.44769"/>
		<stop  offset="0.47442" style="stop-color:#DE4A91;stop-opacity:0.21017"/>
		<stop  offset="0.58881" style="stop-color:#DC4591;stop-opacity:0"/>
	</radialGradient>
	<path class="st13" d="M57.52883,68.15952c1.02664,2.21473-0.29286,5.01599-2.95178,6.25153
		c-2.66103,1.23614-5.65381,0.43981-6.68153-1.77405c-1.03167-2.21679,0.29345-5.01173,2.95064-6.25092
		C53.50812,65.1495,56.49939,65.94201,57.52883,68.15952z"/>
	
		<radialGradient id="SVGID_6_" cx="1709.71375" cy="453.66122" r="11.519" gradientTransform="matrix(-0.9026 -0.43049 -0.21851 0.45816 1716.34729 601.14069)" gradientUnits="userSpaceOnUse">
		<stop  offset="0" style="stop-color:#CC569A;stop-opacity:0.95"/>
		<stop  offset="0.23435" style="stop-color:#EC698E;stop-opacity:0.65124"/>
		<stop  offset="0.34514" style="stop-color:#E4578F;stop-opacity:0.44769"/>
		<stop  offset="0.47442" style="stop-color:#DE4A91;stop-opacity:0.21017"/>
		<stop  offset="0.58881" style="stop-color:#DC4591;stop-opacity:0"/>
	</radialGradient>
	<path class="st14" d="M70.29822,68.15952c-1.02663,2.21473,0.29286,5.01599,2.95178,6.25153
		c2.66103,1.23614,5.65381,0.43981,6.68153-1.77405c1.03167-2.21679-0.29345-5.01173-2.95065-6.25092
		C74.31893,65.1495,71.32766,65.94201,70.29822,68.15952z"/>
	<path class="st4" d="M45.73797,58.41551C29.38612,74.05711,34.65233,88.67898,34.65233,88.67898
		s4.26432-21.55163,10.49662-30.26347"/>
	<path class="st4" d="M84.085,61.43944c9.84473,6.696,8.54558,22.14849,8.54558,22.14849
		C86.3008,65.15291,89.08882,64.93184,84.085,60.59027"/>
	<path class="st6" d="M37.86063,99.02496c6.37385-11.91238,11.22231-17.43754,9.31548-22.04498"/>
</g>
</svg>
