<?xml version="1.0" encoding="utf-8"?>
<!-- Generator: Adobe Illustrator 20.1.0, SVG Export Plug-In . SVG Version: 6.00 Build 0)  -->
<svg version="1.1" id="Layer_1" xmlns="http://www.w3.org/2000/svg" xmlns:xlink="http://www.w3.org/1999/xlink" x="0px" y="0px"
	 viewBox="0 0 110.14037 110.54787" style="enable-background:new 0 0 110.14037 110.54787;" xml:space="preserve">
<style type="text/css">
	.st0{fill:#020303;}
	.st1{opacity:0.3;}
	.st2{opacity:0.66;fill:#231F20;}
	.st3{fill:#F6E0D1;}
	.st4{fill:#F1F2F2;}
	.st5{opacity:0.83;fill:#36A9E1;}
	.st6{fill:#A8968F;}
	.st7{fill:#404042;}
	.st8{fill:#332217;}
	.st9{fill:#604835;}
	.st10{fill:#231F20;}
	.st11{opacity:0.12;fill:#231F20;}
	.st12{fill:#F9F7EA;}
	.st13{opacity:0.55;}
	.st14{clip-path:url(#SVGID_2_);fill:#785D4B;}
	.st15{clip-path:url(#SVGID_4_);fill:#785D4B;}
</style>
<circle class="st0" cx="55.07018" cy="55.47768" r="55.07018"/>
<g>
	<g class="st1">
		<g id="_x35__10_">
			<path class="st2" d="M69.59974,72.57759l0.01617,1.93851c0.01098,1.15127-0.9092,2.08543-2.06541,2.09475
				c-1.02132,0.00875-1.87382-0.73187-2.05772-1.70168c-0.15707,0.97253-1.00436,1.72359-2.03089,1.73129
				c-1.02625,0.00932-1.88229-0.71817-2.06541-1.69894c-0.15679,0.98406-1.00267,1.72196-2.03061,1.73128
				c-1.1463,0.00767-2.08487-0.91004-2.09253-2.0646c0.00766,1.15456-0.92265,2.08543-2.0687,2.09474
				c-1.02299,0.00657-1.88398-0.73077-2.05528-1.70329c-0.16967,0.97472-1.00105,1.72469-2.03089,1.734
				c-0.97556,0.00657-1.78582-0.65293-2.02814-1.54488c-0.22118,0.89632-1.0205,1.56736-1.99358,1.57336
				c-1.14796,0.00988-2.08734-0.91058-2.09747-2.06184l-0.01016-1.93795L69.59974,72.57759z"/>
		</g>
	</g>
	<path class="st3" d="M82.22374,55.61578c-0.02293,0-0.04406,0.00815-0.06693,0.00863
		c-0.67869-10.62061-2.45928-20.85418-2.45928-20.85418s0.27121-11.723-23.27113-11.723
		c-15.44933,0-21.66823,2.43525-24.21931,8.73931c-1.33624,3.30207-1.77279,9.99268-1.77279,12.94218
		c0,3.46147,0,7.45162,0,10.98077c-2.02847,0.44332-3.57432,2.68043-3.57432,5.39262c0,2.71331,3.14909,4.95173,5.17756,5.39532
		c0,0,0.47148,28.44221,19.61677,28.44221c1.05536,0.0951,2.12122,0.15988,3.18446,0.19303
		c0.52433,0.00414,1.05598-0.00145,1.60221-0.02486c13.13438-0.5789,19.09009-5.90529,23.75768-28.60678
		c0.27246,0.06899,1.73675,0.09013,2.02509,0.09013c2.37544,0,4.30336-2.45708,4.30336-5.48904
		C86.5271,58.0714,84.59918,55.61578,82.22374,55.61578z"/>
	<path class="st4" d="M49.76487,55.00863c0,2.19954-2.47059,3.98146-5.52945,3.98146c-3.04788,0-5.52245-1.78193-5.52245-3.98146
		c0-2.20194,2.47456-3.9863,5.52245-3.9863C47.29428,51.02233,49.76487,52.80668,49.76487,55.00863z"/>
	<ellipse class="st5" cx="44.4516" cy="54.02638" rx="2.6413" ry="1.90408"/>
	<path class="st3" d="M38.54765,55.83643c0.00135-0.00336,0.00149-0.00323,0.00263-0.00648
		c3.70464,1.18906,7.75843,1.18906,11.46306,0c0.00129,0.00309,0.00125,0.00322,0.00262,0.00648
		c0.03026,0.09011,0.05457,0.17881,0.0674,0.27066c0.5331,1.89096-1.94149,4.35173-5.80175,4.35201
		c-3.87295-0.00138-6.33373-2.46154-5.80164-4.35212C38.49301,56.01576,38.51746,55.92679,38.54765,55.83643z"/>
	<g>
		<path class="st6" d="M38.06863,55.93392c4.12616,1.48553,8.64136,1.48553,12.76752,0c0.05371,0.16827,0.09979,0.3324,0.13297,0.5
			c-4.21399,1.50626-8.8197,1.50626-13.03372-0.00009C37.96878,56.26647,38.01535,56.10198,38.06863,55.93392z"/>
	</g>
	<g>
		<path class="st7" d="M36.13854,50.83128c-0.357,0.51469,0.07704,1.17871,0.92178,1.37119
			c1.82523-3.58088,13.8289,1.46249,13.8289,1.46249l0.31696-1.62134C51.20618,52.04361,37.09898,46.26665,36.13854,50.83128z"/>
	</g>
	<path class="st8" d="M76.79468,26.8769c0.353,9.53112-37.78291,4.47221-41.03494,5.4424
		c-3.25203,0.9702-5.32542,13.62004-5.32542,23.38076C16.17563,7.3881,75.9931,5.2344,76.79468,26.8769z"/>
	<path class="st9" d="M76.08221,27.46295c10.01133,6.70595,7.73523,20.87987,5.76933,29.12791
		C79.87733,44.5508,80.03008,39.64281,76.08221,27.46295z"/>
	<path class="st6" d="M52.56955,52.69889c2.17327,8.24031,0.81498,12.22464,0,12.76795
		c-0.81498,0.54332-4.52765,1.99216-2.08272,4.34654c2.44493,2.35437,3.44101-0.90553,4.43709,0
		c0.99608,0.90553,3.80322,0.99608,4.25599,0.18111c0.45276-0.81498,2.15063,0.54331,2.80714,0.13583
		c0.65651-0.40749,1.67523-2.89769-0.63387-4.18807c-2.3091-1.29037-2.87505-8.14976-2.71658-10.45885"/>
	<path class="st3" d="M53.62161,51.52158c2.17327,8.24031,0.81498,12.22464,0,12.76796
		c-0.81498,0.54331-4.52765,1.99216-2.08272,4.34653s3.44101-0.90553,4.43709,0s3.80322,0.99608,4.25599,0.18111
		c0.45276-0.81498,2.15063,0.54332,2.80714,0.13583c0.65651-0.40749,1.67523-2.89769-0.63387-4.18806
		c-2.3091-1.29038-2.87505-8.14976-2.71659-10.45886"/>
	<g id="_x36__6_" class="st1">
		<path class="st10" d="M42.46111,73.94863c0.35691,2.45943,6.31548,4.41586,13.61504,4.41586
			c7.29884,0,13.25789-1.95643,13.61407-4.41586H42.46111z"/>
	</g>
	<g id="_x35__6_">
		<path class="st11" d="M66.69874,74.22592l0.01427,1.71124c0.00969,1.01629-0.80261,1.84093-1.82327,1.84915
			c-0.90157,0.00773-1.65413-0.64606-1.81647-1.50217c-0.13866,0.85851-0.8866,1.52152-1.79278,1.52831
			c-0.90593,0.00823-1.66161-0.63396-1.82326-1.49976c-0.13841,0.86869-0.88512,1.52008-1.79254,1.52831
			c-1.0119,0.00676-1.84044-0.80335-1.8472-1.82255c0.00676,1.0192-0.81448,1.84093-1.82616,1.84916
			c-0.90306,0.0058-1.66309-0.6451-1.81432-1.5036c-0.14978,0.86044-0.88368,1.52248-1.79279,1.53071
			c-0.86118,0.0058-1.57645-0.57639-1.79036-1.36375c-0.19525,0.79123-0.90085,1.3836-1.75985,1.3889
			c-1.01337,0.00872-1.84262-0.80382-1.85156-1.82011l-0.00897-1.71075L66.69874,74.22592z"/>
		<path class="st12" d="M66.69512,73.88669l0.01331,1.71171c0.00893,1.01-0.80239,1.83947-1.82401,1.84916
			c-0.89989,0.00533-1.65388-0.64752-1.81575-1.50653c-0.13766,0.8595-0.8873,1.52444-1.79325,1.53314
			c-0.90303,0.00386-1.66089-0.64267-1.82326-1.507c-0.13573,0.86916-0.88004,1.52634-1.78746,1.53167
			c-1.01483,0.00823-1.84044-0.80818-1.84938-1.82108c0.00894,1.01289-0.81447,1.83996-1.82616,1.84868
			c-0.90596,0.00677-1.66092-0.64462-1.81578-1.50509c-0.14613,0.86143-0.88294,1.52444-1.79422,1.53024
			c-0.86068,0.00822-1.57137-0.57589-1.78528-1.36036c-0.19525,0.7869-0.90593,1.3836-1.76204,1.38747
			c-1.01411,0.00822-1.84504-0.80772-1.8523-1.82108l-0.01113-1.7093L66.69512,73.88669z"/>
	</g>
	<g class="st13">
		<defs>
			<path id="SVGID_1_" class="st13" d="M76.79468,26.8769c0.353,9.53112-37.78291,4.47221-41.03494,5.4424
				c-3.25203,0.9702-5.32542,13.62004-5.32542,23.38076C16.17563,7.3881,75.9931,5.2344,76.79468,26.8769z"/>
		</defs>
		<clipPath id="SVGID_2_">
			<use xlink:href="#SVGID_1_"  style="overflow:visible;"/>
		</clipPath>
		<path class="st14" d="M55.00533,30.23619c12.05119-3.86125,15.82653-6.57997,15.82653-6.57997s0.13728,1.25229-0.85062,1.75879
			c-0.98268,0.50546,4.28179-1.48278,4.6271-1.75588c0.34916-0.27491,2.46882,0.08558,0.89161,1.20025
			c-1.55334,1.0958-6.51155,3.65336-6.67283,3.73766c0.21855-0.07992,6.65045-2.44895,7.64835-3.00759
			c-0.23672,0.33875-0.84216,1.27323-2.10108,1.93855c-1.69916,0.89516-2.33066,1.18626-2.33066,1.18626
			s4.56995-1.43934,5.37346-1.86776c0.80267-0.42836-1.73119,1.47144-1.73119,1.47144s5.27616-1.86882,6.95779-2.9239
			c1.54896-0.97325,1.84176-0.2134,1.02969,0.33648c0.31065-0.16453,0.78246-0.41452,1.286-0.67938
			c-1.84742,2.02806-6.08238,4.03909-11.09288,5.85745l3.22602-1.75787c-0.27906,0.09712-4.70058,1.65482-6.82317,2.30345
			c-2.19478,0.67203-3.75475,1.13171-3.75475,1.13171s3.59705-1.68873,4.28078-2.31571
			c0.69247-0.62906-0.76438-0.10868-2.49694,0.46882c-1.73009,0.57579-3.48096,0.99413-3.48096,0.99413
			s3.41334-1.61094,3.28204-1.9708c-0.13568-0.35749-4.55742,1.56007-7.85127,2.53668
			c-3.29526,0.97657,4.50111-2.05575,4.77925-2.94674c0.2817-0.89042-0.45037-0.68014-4.25457,0.80645
			c-3.80467,1.48836-0.43484-0.5002-0.47841-0.89756C60.26103,28.95469,56.65935,29.82218,55.00533,30.23619z"/>
		<path class="st14" d="M78.64652,22.42524c-12.60461-1.12435-17.13964-0.08606-17.13964-0.08606s0.36006-1.20724,1.46713-1.29012
			c1.10187-0.08395-4.5215-0.29732-4.94579-0.17983c-0.42854,0.11766-2.2416-1.03806-0.35522-1.45237
			c1.85705-0.40619,7.41941-0.83641,7.60077-0.85142c-0.23243-0.01127-7.07946-0.32735-8.216-0.20031
			c0.34974-0.22016,1.27069-0.84599,2.6892-0.96992c1.91346-0.16466,2.60844-0.18754,2.60844-0.18754
			s-4.77015-0.4493-5.67698-0.36673c-0.90604,0.08285,2.16688-0.68322,2.16688-0.68322s-5.58774-0.32795-7.54718-0.00912
			c-1.80541,0.29497-1.77998-0.51894-0.81806-0.71011c-0.35017,0.0309-0.88204,0.07795-1.44893,0.12636
			c2.49024-1.15095,7.17383-1.35858,12.49717-1.08735l-3.65556,0.36636c0.29487,0.01894,4.97423,0.3015,7.18208,0.52853
			c2.28345,0.2335,3.89946,0.41603,3.89946,0.41603s-3.97057,0.1585-4.84419,0.47056
			c-0.88247,0.31059,0.66211,0.39713,2.48293,0.53815c1.81789,0.14164,3.59373,0.43643,3.59373,0.43643
			s-3.77107,0.15819-3.78991,0.5408c-0.01387,0.38212,4.8055,0.33318,8.22002,0.71306
			c3.41579,0.38046-4.94621,0.14542-5.54867,0.85835c-0.60553,0.71102,0.15073,0.80169,4.23364,0.90993
			c4.08403,0.10681,0.20634,0.62985,0.09209,1.01292C73.30583,21.56406,76.9616,22.16408,78.64652,22.42524z"/>
		<path class="st14" d="M14.51268,52.69889c10.13003-7.58439,14.53343-9.08595,14.53343-9.08595s-0.94107-0.83752-1.92631-0.32587
			c-0.98137,0.508,3.68957-2.63049,4.11224-2.75366c0.42638-0.12527,1.36081-2.06169-0.46157-1.42215
			c-1.79317,0.63102-6.75064,3.19-6.9128,3.2726c0.19177-0.13181,5.84953-4.00111,6.88305-4.4907
			c-0.41325-0.00335-1.52568-0.0514-2.79741,0.5891c-1.71414,0.86612-2.31731,1.21211-2.31731,1.21211
			s3.82114-2.89051,4.63589-3.29713c0.81423-0.40597-2.20238,0.5583-2.20238,0.5583s4.58038-3.21722,6.4147-3.97638
			c1.69075-0.69846,1.24113-1.37739,0.32242-1.03418c0.3141-0.15785,0.79123-0.39751,1.29887-0.65443
			c-2.72337,0.33049-6.81633,2.61671-11.20164,5.64665l3.302-1.61062c-0.24086,0.17116-4.07245,2.87211-5.83103,4.2262
			c-1.81947,1.39934-3.09805,2.40436-3.09805,2.40436s3.46064-1.95308,4.36783-2.14703
			c0.91394-0.19986-0.35435,0.68596-1.82895,1.76337c-1.47178,1.07639-2.82727,2.26095-2.82727,2.26095
			s3.29079-1.84843,3.50801-1.5329c0.21274,0.31773-3.91228,2.81033-6.61685,4.92895
			c-2.70535,2.11979,4.28363-2.47723,5.17096-2.18762c0.88893,0.28637,0.29335,0.76116-3.12258,3.00019
			c-3.41764,2.2384,0.15569,0.64425,0.45431,0.91C18.60253,49.15803,15.80852,51.59075,14.51268,52.69889z"/>
		<path class="st14" d="M17.12936,60.71377c10.13003-7.58439,14.53343-9.08595,14.53343-9.08595s-0.94108-0.83752-1.92632-0.32587
			c-0.98137,0.508,3.68957-2.63049,4.11224-2.75366c0.42638-0.12527,1.36081-2.06169-0.46157-1.42215
			c-1.79317,0.63101-6.75065,3.19-6.9128,3.2726c0.19177-0.13181,5.84953-4.00111,6.88305-4.4907
			c-0.41325-0.00335-1.52568-0.0514-2.79741,0.5891c-1.71414,0.86612-2.31731,1.21211-2.31731,1.21211
			s3.82114-2.89051,4.63589-3.29713c0.81423-0.40597-2.20238,0.5583-2.20238,0.5583s4.58038-3.21722,6.4147-3.97638
			c1.69075-0.69846,1.24113-1.37739,0.32242-1.03418c0.3141-0.15785,0.79124-0.39751,1.29888-0.65443
			c-2.72337,0.33049-6.81633,2.61671-11.20165,5.64665l3.302-1.61062c-0.24085,0.17116-4.07245,2.87211-5.83102,4.2262
			c-1.81948,1.39935-3.09805,2.40437-3.09805,2.40437s3.46065-1.95308,4.36783-2.14703
			c0.91394-0.19986-0.35435,0.68596-1.82895,1.76337c-1.47178,1.07639-2.82727,2.26095-2.82727,2.26095
			s3.29079-1.84843,3.508-1.5329c0.21274,0.31773-3.91227,2.81034-6.61685,4.92895
			c-2.70535,2.11979,4.28363-2.47723,5.17096-2.18762c0.88894,0.28637,0.29335,0.76116-3.12258,3.00019
			c-3.41764,2.2384,0.15569,0.64425,0.45431,0.91C21.21922,57.17291,18.4252,59.60563,17.12936,60.71377z"/>
		<path class="st14" d="M13.38114,63.93688c10.13003-7.58439,14.53343-9.08594,14.53343-9.08594s-0.94108-0.83753-1.92632-0.32587
			c-0.98137,0.508,3.68957-2.63049,4.11224-2.75366c0.42638-0.12527,1.36081-2.06169-0.46157-1.42215
			c-1.79317,0.63102-6.75064,3.19-6.91279,3.2726c0.19177-0.1318,5.84953-4.00111,6.88305-4.49069
			c-0.41325-0.00335-1.52568-0.0514-2.79741,0.5891c-1.71414,0.86612-2.31731,1.21212-2.31731,1.21212
			s3.82114-2.89051,4.63589-3.29713c0.81423-0.40597-2.20238,0.5583-2.20238,0.5583s4.58038-3.21722,6.4147-3.97638
			c1.69075-0.69846,1.24113-1.37739,0.32242-1.03418c0.3141-0.15785,0.79123-0.39751,1.29887-0.65443
			c-2.72337,0.33049-6.81633,2.61671-11.20164,5.64666l3.302-1.61063c-0.24086,0.17116-4.07245,2.87211-5.83103,4.2262
			c-1.81948,1.39935-3.09805,2.40437-3.09805,2.40437s3.46064-1.95308,4.36783-2.14703
			c0.91394-0.19986-0.35435,0.68596-1.82895,1.76337c-1.47178,1.07639-2.82727,2.26095-2.82727,2.26095
			s3.29079-1.84843,3.508-1.5329c0.21274,0.31773-3.91227,2.81033-6.61685,4.92894
			c-2.70535,2.11979,4.28363-2.47723,5.17096-2.18762c0.88893,0.28637,0.29335,0.76116-3.12258,3.00019
			c-3.41764,2.2384,0.15569,0.64425,0.45431,0.91C17.47099,60.39602,14.67698,62.82874,13.38114,63.93688z"/>
	</g>
	<g>
		<defs>
			<path id="SVGID_3_" d="M76.08221,27.46295c10.01133,6.70595,7.73523,20.87987,5.76933,29.12791
				C79.87733,44.5508,80.03008,39.64281,76.08221,27.46295z"/>
		</defs>
		<use xlink:href="#SVGID_3_"  style="overflow:visible;fill:#332217;"/>
		<clipPath id="SVGID_4_">
			<use xlink:href="#SVGID_3_"  style="overflow:visible;"/>
		</clipPath>
		<path class="st15" d="M69.05527,40.79721c12.05119-3.86125,15.82652-6.57997,15.82652-6.57997s0.13728,1.25229-0.85062,1.75879
			c-0.98269,0.50546,4.28179-1.48278,4.6271-1.75589c0.34916-0.27491,2.46881,0.08558,0.8916,1.20024
			c-1.55334,1.09581-6.51154,3.65337-6.67282,3.73766c0.21854-0.07992,6.65045-2.44895,7.64834-3.00759
			c-0.23672,0.33875-0.84216,1.27323-2.10108,1.93855c-1.69915,0.89516-2.33065,1.18626-2.33065,1.18626
			s4.56995-1.43934,5.37346-1.86776c0.80267-0.42836-1.73119,1.47144-1.73119,1.47144s5.27617-1.86882,6.95779-2.9239
			c1.54897-0.97325,1.84176-0.2134,1.02969,0.33649c0.31065-0.16453,0.78246-0.41453,1.286-0.67939
			c-1.84742,2.02806-6.08237,4.0391-11.09287,5.85745l3.22601-1.75787c-0.27906,0.09712-4.70058,1.65482-6.82317,2.30344
			c-2.19477,0.67203-3.75474,1.13171-3.75474,1.13171s3.59705-1.68873,4.28078-2.31571
			c0.69247-0.62906-0.76439-0.10868-2.49694,0.46882c-1.73009,0.57579-3.48096,0.99413-3.48096,0.99413
			s3.41334-1.61094,3.28204-1.97081c-0.13568-0.35749-4.55741,1.56008-7.85126,2.53669
			c-3.29526,0.97657,4.50111-2.05575,4.77924-2.94674c0.2817-0.89042-0.45036-0.68014-4.25456,0.80646
			c-3.80467,1.48835-0.43484-0.5002-0.47841-0.89757C74.31097,39.51571,70.70929,40.38321,69.05527,40.79721z"/>
	</g>
	<path class="st4" d="M60.55776,54.73692c0,1.88251,2.47059,3.40759,5.52945,3.40759c3.04788,0,5.52245-1.52509,5.52245-3.40759
		c0-1.88456-2.47456-3.41172-5.52245-3.41172C63.02835,51.3252,60.55776,52.85236,60.55776,54.73692z"/>
	<ellipse class="st5" cx="65.87106" cy="54.32926" rx="2.6413" ry="1.90408"/>
	<path class="st3" d="M60.06963,55.83643c0.00137-0.00336,0.0015-0.00323,0.00266-0.00648
		c3.74749,1.18906,7.84818,1.18906,11.59565,0c0.0013,0.00309,0.00127,0.00322,0.00266,0.00648
		c0.03061,0.09011,0.0552,0.17881,0.06818,0.27066c0.53926,1.89096-1.96395,4.35173-5.86886,4.35201
		c-3.91775-0.00138-6.40699-2.46154-5.86874-4.35212C60.01437,56.01576,60.03909,55.92679,60.06963,55.83643z"/>
	<g>
		<path class="st6" d="M72.254,56.06374c-4.12619,1.4855-8.64133,1.4855-12.76752,0
			c-0.05334,0.16809-0.09998,0.3324-0.13297,0.49997c4.21402,1.5062,8.81979,1.5062,13.03372-0.00009
			C72.35382,56.39626,72.30737,56.23165,72.254,56.06374z"/>
	</g>
	<g>
		<path class="st7" d="M74.18411,51.13416c0.357,0.51469-0.07704,1.17871-0.92178,1.37119
			c-1.82523-3.58088-13.8289,1.46249-13.8289,1.46249l-0.31696-1.62134C59.11647,52.34649,73.22367,46.56953,74.18411,51.13416z"/>
	</g>
</g>
</svg>
