<?xml version="1.0" encoding="utf-8"?>
<!-- Generator: Adobe Illustrator 21.0.0, SVG Export Plug-In . SVG Version: 6.00 Build 0)  -->
<svg version="1.1" id="Layer_1" xmlns="http://www.w3.org/2000/svg" xmlns:xlink="http://www.w3.org/1999/xlink" x="0px" y="0px"
	 viewBox="0 0 124.72 126.11" style="enable-background:new 0 0 124.72 126.11;" xml:space="preserve">
<style type="text/css">
	.st0{fill:#6F8C31;}
	.st1{fill:#E2C8BA;}
	.st2{opacity:0.8;fill:#302924;}
	.st3{fill:#D6BDC0;}
	.st4{fill:#141414;}
	.st5{fill:#2B241E;}
	.st6{fill:#F1F2F2;}
	.st7{opacity:0.83;fill:#66787F;}
	.st8{fill:#F6E0D1;}
	.st9{fill:#A99891;}
	.st10{opacity:0.22;fill:#2B241E;}
	.st11{opacity:0.3;}
	.st12{fill:#231F20;}
	.st13{clip-path:url(#SVGID_2_);fill:#F9F7EA;}
	.st14{fill:#CB8A8D;}
	.st15{opacity:0.2;fill:#231F20;}
	.st16{opacity:0.06;fill:none;stroke:#231F20;stroke-width:0.5;stroke-miterlimit:10;}
	.st17{opacity:0.32;fill:#575656;}
	.st18{opacity:0.34;fill:none;stroke:#231F20;stroke-width:0.5;stroke-miterlimit:10;}
	.st19{opacity:0.13;fill:none;stroke:#231F20;stroke-width:0.5;stroke-miterlimit:10;}
	.st20{fill:#575656;}
	.st21{fill:#C4C4C4;}
</style>
<circle class="st0" cx="62.31707" cy="62.62042" r="55.07018"/>
<g>
	<path class="st1" d="M39.4522,63.38813c-3.30219-2.17567-4.1509,0.59036-3.11359,4.111c1.03731,3.52064,0,4.46056,0.75441,5.35796
		c0.75441,0.89741,1.03735,2.31192,1.08448,3.34924c0.04713,1.03731,0.33003,2.45183,2.49896,1.79172
		C42.84539,77.33794,39.4522,63.38813,39.4522,63.38813z"/>
	<path class="st1" d="M83.67818,63.38813c3.30219-2.17567,4.1509,0.59036,3.11359,4.111c-1.03731,3.52064,0,4.46056-0.75441,5.35796
		c-0.7544,0.89741-1.03735,2.31192-1.08448,3.34924c-0.04713,1.03731-0.33003,2.45183-2.49895,1.79172
		S83.67818,63.38813,83.67818,63.38813z"/>
	<path class="st1" d="M85.1647,49.00048l-3.56718-10.9625l-9.49751-5.02153H61.7999H51.49978l-9.49751,5.02153l-3.56715,10.9625
		c0,0-0.57965,13.20213,0,14.33374c0.57968,1.13161-0.53507,7.11972,0.71345,14.09802c0,0,0.51868,8.9265,3.32189,12.87209
		c7.99311,11.25051,19.32943,13.155,19.32943,13.155s11.33632-1.90449,19.32943-13.155
		c2.80325-3.94559,3.32185-12.87209,3.32185-12.87209c1.24859-6.9783,0.13377-12.96641,0.71352-14.09802
		C85.74432,62.20261,85.1647,49.00048,85.1647,49.00048z"/>
	<path class="st2" d="M83.27015,77.06712c-6.9334,8.34478-11.41259-3.94916-17.82605-3.94916
		c-1.27144,0-2.37276,0.21218-3.6442,0.21218c-13.01355,0-16.97419,15.63039-22.65131,4.1021c0,0,0.0612,1.05346,0.25524,2.59658
		c0.37072,2.94872,1.22644,7.68535,3.06663,10.27551c7.99312,11.25051,19.32944,13.155,19.32944,13.155
		s11.33633-1.90449,19.32941-13.155c2.80327-3.94559,3.3219-12.87209,3.3219-12.87209
		C84.52414,77.02464,83.52847,76.75625,83.27015,77.06712z M62.87083,88.65405c-4.82289,0-10.97255-2.54613-10.97255-5.87628
		c4.29069,5.67557,13.87479,2.62289,22.16673,0.12981C73.36377,86.30833,67.69372,88.65405,62.87083,88.65405z"/>
	<path class="st3" d="M51.89828,82.77777c3.48914-2.1393,9.78936-3.41236,10.97254-1.90354
		c3.72931-0.51865,4.36276-0.99017,6.34807,0.04715c1.98531,1.03731,4.82236,1.9971,4.82236,1.9971L51.89828,82.77777z"/>
	<path class="st4" d="M67.83517,81.44003c-2.59331,0-4.71508,0-4.71508,0s-2.12177,0-4.71504,0
		c-2.59327,0-4.62076,1.33775-6.50677,1.33775c5.7052,2.75226,11.22181,1.9692,11.22181,1.9692s5.51661,0.78306,11.22184-1.9692
		C72.4559,82.77777,70.42844,81.44003,67.83517,81.44003z"/>
	<path class="st5" d="M86.51617,45.46419c-1.69205-8.04323-11.94535-20.76824-24.57674-21.26473c0-0.00805,0-0.01568,0-0.02373
		c-0.12732,0-0.25285,0.00936-0.3797,0.01185c-0.12685-0.00249-0.25238-0.01185-0.3797-0.01185c0,0.00805,0,0.01568,0,0.02373
		c-12.63139,0.4965-22.88469,13.22151-24.57674,21.26473c-1.72589,8.20419-0.06904,12.87209,1.10457,15.13531
		c1.17361,2.26323,1.49691,12.58918,1.49691,18.41367h0.78127c0,0-0.62132-8.15843-0.62132-13.53359s2.27818-15.77185,1.933-20.2983
		c-0.34518-4.52645,5.31576-8.13346,10.76959-7.49693c4.10699,0.47933,7.62478,1.92047,9.11272,2.60342
		c0.29222,0.17962,0.7594,0.2473,0.7594,0c1.48794-0.68295,5.00574-2.12408,9.11272-2.60342
		c5.45383-0.63653,11.11476,2.97048,10.76958,7.49693s1.93301,14.92314,1.93301,20.2983s-0.62132,13.53359-0.62132,13.53359h0.7813
		c0-5.82449,0.32327-16.15044,1.49687-18.41367C86.58521,58.33628,88.24207,53.66838,86.51617,45.46419z"/>
	<path class="st6" d="M56.18898,60.30678c0.99783,0.84539-2.17699,2.36731-4.87234,2.36731
		c-2.68568,0-5.96948-1.66512-4.86618-2.36731c1.48317-0.94395,2.1805-1.14104,4.86618-1.14104
		C54.01199,59.16574,55.19882,59.4679,56.18898,60.30678z"/>
	<ellipse class="st7" cx="51.42197" cy="60.9201" rx="2.15373" ry="1.75417"/>
	<path class="st8" d="M56.56704,61.11386c-0.00121,0.00174-0.00133,0.00167-0.00234,0.00335
		c-3.39641-0.54453-7.10094-0.47755-10.47543,0.1894c-0.00121-0.00155-0.00117-0.00162-0.00246-0.00326
		c-0.02848-0.04541-0.05151-0.09019-0.06409-0.13677c-0.50459-0.9545,1.73413-2.24899,5.2618-2.31291
		c3.53928-0.06329,5.81071,1.14933,5.34187,2.12124C56.61531,61.0216,56.59379,61.06733,56.56704,61.11386z"/>
	<path class="st9" d="M45.55842,61.46375c3.49967-1.33189,7.35428-1.40158,10.89981-0.19707
		c-0.04509,0.11555-0.09318,0.22555-0.1505,0.33129c-3.44508-1.16156-7.18634-1.0938-10.58711,0.19154
		C45.65981,61.68579,45.60801,61.57748,45.55842,61.46375z"/>
	<path class="st6" d="M78.49158,60.54604c0.99783,0.84539-2.17699,2.36731-4.87234,2.36731
		c-2.68568,0-5.96948-1.66512-4.86618-2.36731c1.48318-0.94395,2.1805-1.14104,4.86618-1.14104
		C76.31459,59.405,77.50142,59.70715,78.49158,60.54604z"/>
	<ellipse class="st7" cx="73.72456" cy="61.15936" rx="2.15373" ry="1.75417"/>
	<path class="st8" d="M78.86964,61.35312c-0.00121,0.00174-0.00134,0.00167-0.00234,0.00335
		c-3.39641-0.54453-7.10094-0.47755-10.47543,0.1894c-0.00121-0.00155-0.00117-0.00162-0.00246-0.00326
		c-0.02848-0.04541-0.05151-0.09019-0.06409-0.13677c-0.50459-0.9545,1.73413-2.24899,5.2618-2.31291
		c3.53928-0.06329,5.81071,1.14933,5.34187,2.12124C78.91791,61.26086,78.89639,61.30659,78.86964,61.35312z"/>
	<path class="st10" d="M68.25453,68.23789c-0.68665-0.63654-2.71339-5.67166-2.71339-11.32972l-2.67031-0.5658l-2.67031,0.5658
		c-0.71099,5.70914-1.96231,10.85757-2.64896,11.49411c-0.68665,0.63654-5.66715,2.29742-0.78429,5.48008
		c1.4496,0.35362,3.98487,0.22577,4.29002,1.64028c0,0.63654,3.53629,0.4774,3.53629-0.15913
		c0.30515-1.41451,2.93124-1.12753,4.38084-1.48115C73.85725,70.6997,68.94118,68.87442,68.25453,68.23789z"/>
	<path class="st9" d="M67.86102,61.70301c3.49967-1.33189,7.35428-1.40158,10.89981-0.19707
		c-0.04509,0.11555-0.09318,0.22555-0.1505,0.33129c-3.44508-1.16156-7.18633-1.0938-10.58711,0.19154
		C67.96241,61.92505,67.91061,61.81673,67.86102,61.70301z"/>
	<path class="st1" d="M67.39728,67.88426c-0.63654-0.63654-2.05105-5.72879-2.05105-11.38685l-2.4754-0.5658l-2.4754,0.5658
		c0,5.65806-1.41451,10.75032-2.05104,11.38685c-0.63653,0.63653-5.65806,2.40468-1.13161,5.58733
		c1.34379,0.35363,4.03141,0,4.31427,1.41452c0,0.63653,2.68758,0.63653,2.68758,0c0.28287-1.41452,2.97048-1.06089,4.31428-1.41452
		C73.05534,70.28894,68.03381,68.52079,67.39728,67.88426z"/>
	<g id="_x36__8_" class="st11">
		<path class="st12" d="M55.61321,82.62996c0.19026,1.75325,3.36664,3.14793,7.25788,3.14793
			c3.89085,0,7.06749-1.39468,7.25736-3.14793H55.61321z"/>
	</g>
	<g>
		<defs>
			<path id="SVGID_1_" d="M67.83517,81.44003c-2.59331,0-4.71508,0-4.71508,0s-2.12177,0-4.71504,0
				c-2.59327,0-4.62076,1.33775-6.50677,1.33775c5.7052,2.75226,11.22181,1.9692,11.22181,1.9692s5.51661,0.78306,11.22184-1.9692
				C72.4559,82.77777,70.42844,81.44003,67.83517,81.44003z"/>
		</defs>
		<clipPath id="SVGID_2_">
			<use xlink:href="#SVGID_1_"  style="overflow:visible;"/>
		</clipPath>
		<path class="st13" d="M71.67896,81.30422l0.0108,1.38762c0.00724,0.81876-0.65047,1.49119-1.47866,1.49904
			c-0.7295,0.00432-1.34074-0.52493-1.47196-1.22128c-0.1116,0.69676-0.7193,1.23581-1.45372,1.24286
			c-0.73206,0.00313-1.34642-0.52099-1.47805-1.22166c-0.11003,0.70459-0.71342,1.23735-1.44902,1.24167
			c-0.82269,0.00667-1.49197-0.65517-1.49922-1.47628c0.00725,0.82111-0.66026,1.49158-1.4804,1.49866
			c-0.73443,0.00549-1.34645-0.52258-1.47199-1.22012c-0.11847,0.69833-0.71576,1.2358-1.45451,1.2405
			c-0.69772,0.00667-1.27385-0.46685-1.44725-1.10279c-0.15828,0.63791-0.73441,1.12164-1.42842,1.12476
			c-0.8221,0.00667-1.4957-0.65478-1.50159-1.47628l-0.00902-1.38567L71.67896,81.30422z"/>
	</g>
	<path class="st5" d="M41.21869,61.30661c0-4.66775,2.89976-7.42606,5.51661-8.27477
		c2.61685-0.84871,8.69927-0.77798,11.31612,1.34379c2.61685,2.12177-2.68758,2.53997-2.68758,2.53997
		s-3.4969-2.41862-8.41637-0.984C42.02802,57.36622,41.21869,61.30661,41.21869,61.30661z"/>
	<path class="st5" d="M83.00226,61.30661c0-4.66775-2.89976-7.42606-5.51661-8.27477s-8.69927-0.77798-11.31612,1.34379
		s2.68758,2.53997,2.68758,2.53997s3.4969-2.41862,8.41637-0.984C82.19294,57.36622,83.00226,61.30661,83.00226,61.30661z"/>
	<path class="st14" d="M62.81955,84.84028l-10.92126-2.06251c1.06089,2.07219,5.05689,4.6268,7.42621,4.6268
		c3.07657,0.31827,4.385,0.24754,6.99011,0c2.36931,0,5.69339-2.54613,8.02734-4.6268L62.81955,84.84028z"/>
	<path class="st15" d="M58.29897,71.98636c1.9096,0,3.50093,0.91963,3.50093,3.20044
		c-1.09626-2.17492-1.37916-2.28101-2.47541-2.28101S57.63166,71.94595,58.29897,71.98636z"/>
	<path class="st15" d="M67.38338,71.98636c-1.90959,0-3.50093,0.91963-3.50093,3.20044
		c1.09626-2.17492,1.37916-2.28101,2.47541-2.28101C67.45411,72.90579,68.05069,71.94595,67.38338,71.98636z"/>
	<path class="st16" d="M56.6875,68.23789c-4.06845,4.06845-7.37984,8.03643-8.18406,9.76015"/>
	<path class="st16" d="M69.21889,68.23789c4.06845,4.06845,7.37984,8.03643,8.18405,9.76015"/>
	<path class="st17" d="M43.44331,55.73618c-1.61782,0.28263-2.71352,1.80164-2.47888,3.42712
		c0.46454,3.2182,2.37131,7.65567,5.8416,7.42432c4.95081-0.33006,11.92908-3.70923,12.96639-7.18262
		C60.75669,56.10923,57.09563,53.35116,43.44331,55.73618z"/>
	<path class="st17" d="M81.32654,55.93901c1.61782,0.28263,2.71352,1.80165,2.47888,3.42712
		c-0.46454,3.2182-2.37132,7.65567-5.8416,7.42431c-4.95081-0.33005-11.92908-3.70922-12.96639-7.18262
		C64.01317,56.31207,67.67422,53.554,81.32654,55.93901z"/>
	<path class="st18" d="M56.45823,94.31213c1.70424-1.70425,8.05915-3.44199,12.07557-0.42435"/>
	<path class="st19" d="M43.5998,80.49702c0.75441,4.95081,2.35214,9.8073,2.35214,9.8073"/>
	<path class="st19" d="M79.19843,82.14729c-1.13161,5.89381-1.36736,7.44978-1.36736,7.44978"/>
	<path class="st20" d="M39.98099,58.85129c1.48524-0.23211,3.04121-0.30283,3.04121-0.30283v0.53045l-3.27107,0.1945v-0.42211
		H39.98099z"/>
	<path class="st21" d="M37.20501,62.61731c0.7603-3.14941,1.39684-4.06885,2.77599-4.06885c0,0.88407,0,1.27306,0,1.27306
		s-1.59133,0.17682-2.13945,1.60901c-0.54812,1.4322-0.54812,1.4322-0.54812,1.4322L37.20501,62.61731z"/>
	<path class="st20" d="M84.58762,59.30487c-1.48524-0.23211-3.04121-0.30283-3.04121-0.30283v0.53044l3.27106,0.1945v-0.4221
		H84.58762z"/>
	<path class="st21" d="M86.61302,63.07089c-0.76031-3.14942-1.39684-4.06885-2.77599-4.06885c0,0.88407,0,1.27306,0,1.27306
		s1.59132,0.17682,2.13945,1.60901c0.54813,1.4322,0.54813,1.4322,0.54813,1.4322L86.61302,63.07089z"/>
	<path class="st21" d="M66.27921,57.48757c0,0-1.06089,0.0584-2.16895-0.57195c-0.61295-0.30034-0.91944-0.22962-0.91944-0.22962
		s-0.30645-0.07072-0.91943,0.22962c-1.10802,0.63035-2.16891,0.57195-2.16891,0.57195s-0.47149,0-2.45181,0l0.14145,0.51863
		c0,0,0.87226,0,1.67383,0c0.80157,0,1.76815-0.165,2.09377-0.2829c0.32565-0.11786,0.57022-0.47149,1.63111-0.47149
		s1.30549,0.35363,1.63111,0.47149c0.32565,0.1179,1.29223,0.2829,2.0938,0.2829c0.80154,0,1.67384,0,1.67384,0l0.14145-0.51863
		C66.7507,57.48757,66.27921,57.48757,66.27921,57.48757z"/>
</g>
</svg>
