<?xml version="1.0" encoding="utf-8"?>
<!-- Generator: Adobe Illustrator 21.0.0, SVG Export Plug-In . SVG Version: 6.00 Build 0)  -->
<svg version="1.1" id="Layer_1" xmlns="http://www.w3.org/2000/svg" xmlns:xlink="http://www.w3.org/1999/xlink" x="0px" y="0px"
	 viewBox="0 0 124.72 126.11" style="enable-background:new 0 0 124.72 126.11;" xml:space="preserve">
<style type="text/css">
	.st0{fill:#F5C985;}
	.st1{fill:#F5DFD0;}
	.st2{opacity:0.84;fill:#20150F;}
	.st3{opacity:0.18;fill:#010202;}
	.st4{opacity:0.19;fill:none;stroke:#221E20;stroke-miterlimit:10;}
	.st5{opacity:0.07;fill:none;stroke:#221E20;stroke-width:0.5;stroke-miterlimit:10;}
	.st6{opacity:0.04;fill:none;stroke:#221E20;stroke-width:0.5;stroke-miterlimit:10;}
	.st7{fill:#F0F1F1;}
	.st8{opacity:0.83;clip-path:url(#SVGID_2_);fill:#312011;}
	.st9{opacity:0.83;clip-path:url(#SVGID_4_);fill:#312011;}
	.st10{fill:#332216;}
</style>
<circle class="st0" cx="62.50586" cy="63.86123" r="55.07018"/>
<path class="st1" d="M112.54685,117.60081"/>
<g>
	<path class="st2" d="M46.44057,41.79948c5.61906-5.4548,15.58183-9.21769,21.64081-7.81502s5.5983,0.19508,5.5983,0.19508
		l-0.02066-4.99196l-9.55324-2.66864c0,0-16.011,4.2511-16.2349,4.78184C47.64698,31.83151,46.44057,41.79948,46.44057,41.79948z"/>
	<path class="st1" d="M43.01141,69.67435c0.02721,4.78609-0.67939,8.66879-1.57496,8.67388
		c-0.89756,0.0051-3.98049-3.07916-4.0077-7.86526c-0.0272-4.78397-4.29287-10.05357,3.9092-9.45969
		C42.23119,61.08795,42.98421,64.89037,43.01141,69.67435z"/>
	<path class="st1" d="M81.73764,69.45417c0.02721,4.78609,0.77792,8.66051,1.67349,8.65542
		c0.89756-0.0051,3.94522-3.12423,3.91801-7.91032c-0.0272-4.78398,4.17828-10.10174-4.01651-9.41464
		C82.42018,60.85946,81.71044,64.67019,81.73764,69.45417z"/>
	<path class="st1" d="M40.57435,61.0117c0.81291,17.24147,2.27513,18.34751,2.20895,20.01191
		c-0.06617,1.6644-1.10357,5.45218,2.47236,9.13809s6.70965,9.41656,11.858,10.29494s12.93878,0.83408,15.33932-2.65889
		c2.40054-3.49298,10.07706-10.26837,10.71478-17.83576c0.63771-7.56738,1.84869-20.73521,1.84869-20.73521l-2.55793-24.18949
		l-17.34282-3.83456l-21.80868,8.89796l-4.64939,7.06073l0.57668,15.4268L40.57435,61.0117z"/>
	<path class="st2" d="M41.9731,44.94907c-1.23204,9.46171-0.92602,23.37729-0.92602,23.37729
		c-3.52308-7.69501-4.49472-5.64727-4.67653-11.0165c-0.1818-5.36924,2.89129-10.30315,3.41901-10.60871
		C40.3173,46.3956,41.9731,44.94907,41.9731,44.94907z"/>
	<path class="st2" d="M84.04388,47.81103l4.02372,2.62444c0,0-0.67465,14.37498-3.22517,18.09572
		C84.45221,66.41556,84.04388,47.81103,84.04388,47.81103z"/>
	<path class="st3" d="M58.09813,63.32576c1.99956,7.41054,0.79661,11.006,0.06538,11.49951
		c-0.73123,0.49352-4.06764,1.81744-1.85355,3.92539s3.09452-0.83318,3.99628-0.02272
		c0.90176,0.81047,3.43048,0.87766,3.8341,0.14132c0.40361-0.73633,1.93976,0.47833,2.52895,0.10796
		c0.5892-0.37037,1.49397-2.61839-0.59234-3.76875c-2.08631-1.15036-2.63116-7.32539-2.50026-9.40591"/>
	<path class="st1" d="M59.03965,62.26003c1.99956,7.41054,0.79661,11.00599,0.06538,11.49951
		c-0.73123,0.49352-4.06764,1.81744-1.85355,3.92539c2.21409,2.10796,3.09452-0.83319,3.99628-0.02272
		c0.90176,0.81046,3.43049,0.87765,3.8341,0.14132s1.93976,0.47832,2.52895,0.10796c0.5892-0.37037,1.49397-2.6184-0.59234-3.76876
		c-2.08631-1.15036-2.63116-7.32539-2.50026-9.4059"/>
	<path class="st4" d="M53.26899,89.06262c3.24331-2.9541,13.73494-3.15611,16.74819-0.77014"/>
	<path class="st5" d="M51.61565,87.96153c0.93749,1.6373,1.44527,3.2987,1.44527,3.2987"/>
	<path class="st5" d="M71.43641,87.01224c-0.91881,1.64785-1.40767,3.31492-1.40767,3.31492"/>
	<path class="st6" d="M56.7298,72.85109c-6.0336,6.38786-7.61101,9.12737-6.42839,16.77137"/>
	<path class="st6" d="M66.59325,72.79501c6.10584,6.31885,7.7143,9.04024,6.61868,16.6972"/>
	<path class="st6" d="M45.02858,79.34248c2.62486,2.70191,3.91748,10.54737,3.91748,10.54737"/>
	<path class="st6" d="M77.86854,79.15576c-2.59397,2.73158-3.7973,10.59123-3.7973,10.59123"/>
	<path class="st2" d="M45.66925,56.47749c9.37329-1.01637,14.16068,2.89248,14.16068,2.89248S53.77023,57.84205,45.66925,56.47749z"
		/>
	<path class="st2" d="M80.88515,56.27727c-10.25049-1.88517-14.12688,3.05331-14.12688,3.05331S75.21227,56.26765,80.88515,56.27727
		z"/>
	<path class="st7" d="M46.27388,63.03743c-0.00641-1.12817,2.20686-2.05476,4.95364-2.07038
		c2.73722-0.01556,5.44297,1.45275,5.44939,2.58092C53.24171,63.12313,46.2803,64.16683,46.27388,63.03743z"/>
	<g>
		<defs>
			<path id="SVGID_1_" d="M46.27388,63.03743c-0.00641-1.12817,2.20686-2.05476,4.95364-2.07038
				c2.73722-0.01556,5.44297,1.45275,5.44939,2.58092C53.24171,63.12313,46.2803,64.16683,46.27388,63.03743z"/>
		</defs>
		<clipPath id="SVGID_2_">
			<use xlink:href="#SVGID_1_"  style="overflow:visible;"/>
		</clipPath>
		
			<ellipse transform="matrix(0.99998 -0.00569 0.00569 0.99998 -0.35534 0.30829)" class="st8" cx="54.04792" cy="62.65497" rx="2.89834" ry="1.87072"/>
	</g>
	<path class="st7" d="M68.7248,64.00161c-0.00642-1.12817,2.20686-2.05476,4.95364-2.07038
		c2.73722-0.01556,5.44297,1.45275,5.44939,2.58092C75.69263,64.08732,68.73122,65.13102,68.7248,64.00161z"/>
	<g>
		<defs>
			<path id="SVGID_3_" d="M68.7248,64.00161c-0.00642-1.12817,2.20686-2.05476,4.95364-2.07038
				c2.73722-0.01556,5.44297,1.45275,5.44939,2.58092C75.69263,64.08732,68.73122,65.13102,68.7248,64.00161z"/>
		</defs>
		<clipPath id="SVGID_4_">
			<use xlink:href="#SVGID_3_"  style="overflow:visible;"/>
		</clipPath>
		
			<ellipse transform="matrix(0.99998 -0.00569 0.00569 0.99998 -0.36046 0.43595)" class="st9" cx="76.49883" cy="63.61916" rx="2.89834" ry="1.87072"/>
	</g>
	<path class="st10" d="M36.37056,57.30986c1.40868-5.00009,2.23078-6.74443,8.019-13.05526s5.08643-10.01308,12.70322-13.98954
		s16.7837-1.38126,16.58689,3.91449c3.45084-5.0117,0.33302-7.94384-6.62971-8.66063
		c-6.96273-0.71679-22.82898,2.38765-28.42508,15.88296S36.37056,57.30986,36.37056,57.30986z"/>
	<path class="st10" d="M73.6904,34.70895c6.62968-3.29011,9.4377,11.67017,8.71661,17.87656
		c1.19554-2.57848,1.63688-4.77448,1.63688-4.77448c3.93652,13.89494,0.79855,20.72016,0.79855,20.72016
		c6.5987-10.09732,6.73093-20.38478,1.05659-30.48796S75.62206,27.20984,73.6904,34.70895z"/>
</g>
</svg>
