<?xml version="1.0" encoding="utf-8"?>
<!-- Generator: Adobe Illustrator 21.0.0, SVG Export Plug-In . SVG Version: 6.00 Build 0)  -->
<svg version="1.1" id="Layer_1" xmlns="http://www.w3.org/2000/svg" xmlns:xlink="http://www.w3.org/1999/xlink" x="0px" y="0px"
	 viewBox="0 0 124.72 126.11" style="enable-background:new 0 0 124.72 126.11;" xml:space="preserve">
<style type="text/css">
	.st0{fill:#F5DFD0;}
	.st1{fill:#F9B50F;stroke:#D60B51;stroke-width:0.1;stroke-miterlimit:10;}
	.st2{fill:#F0F1F1;}
	.st3{fill:#35A8E0;}
	.st4{opacity:0.2;}
	.st5{fill:#221E20;}
	.st6{opacity:0.2;fill:#221E20;}
	.st7{fill:#3C3C3B;}
	.st8{opacity:0.21;fill:#D9D9D9;}
	.st9{fill:#726658;}
	.st10{fill:#7A7059;stroke:#CABA9F;stroke-width:0.03028;stroke-miterlimit:10;}
	.st11{opacity:0.37;}
	.st12{clip-path:url(#SVGID_2_);fill:#DBDBDB;}
	.st13{opacity:0.35;clip-path:url(#SVGID_2_);fill:#DBDBDB;}
</style>
<path class="st0" d="M112.54685,117.60081"/>
<circle class="st1" cx="62.36" cy="62.55154" r="55.07018"/>
<g>
	<g id="_x35__9_">
		<path class="st0" d="M40.20356,69.96109c0,0,0.37792,19.17352,7.97326,22.21204
			c7.59208,3.03644,20.50006,3.22594,26.95401,0.18951c5.55247-1.63236,9.38405-11.79903,9.38405-23.29953
			c0.01497-11.86884-0.08316-28.03722-0.08316-28.03722s-2.00212-9.97927-22.07071-9.97927
			c-20.07075,0-22.15746,9.35705-22.15746,16.38167C40.20356,54.45082,40.20356,69.96109,40.20356,69.96109z"/>
		<ellipse class="st0" cx="40.82291" cy="66.66318" rx="3.66917" ry="4.49306"/>
		<ellipse class="st0" cx="84.35197" cy="66.66318" rx="3.66865" ry="4.49306"/>
	</g>
	<g id="_x31_8_4_">
		<circle class="st2" cx="53.35721" cy="60.0126" r="2.89934"/>
		<circle class="st2" cx="71.81846" cy="60.0126" r="2.89928"/>
		<circle class="st3" cx="53.77437" cy="60.05548" r="1.65193"/>
		<circle class="st3" cx="71.3182" cy="60.08524" r="1.65207"/>
	</g>
	<g class="st4">
		<path class="st5" d="M54.49509,78.57405c1.49746,1.93046,3.92905,3.04641,6.85758,3.15146
			c2.98627,0.0977,6.12181-0.86691,8.82419-2.72872l0.59995,0.77512c-3.05293,2.10368-11.56471,5.67712-17.05415-0.66691
			L54.49509,78.57405z"/>
	</g>
	<g id="_x38__12_">
		<path class="st6" d="M66.3454,68.42761c-0.37553,0-0.72889,0.11488-1.0397,0.31432l-0.57988-8.12802
			c0-2.28526-1.15894-4.13865-2.5889-4.13865c-1.43008,0-2.58916,1.85339-2.58916,4.13865l-0.53045,7.80138
			c-0.1702-0.05063-0.34716-0.08056-0.53004-0.08056c-1.23096,0-1.69807,1.29604-1.69807,2.79459
			c0,1.49854,0.99769,2.71361,2.2281,2.71361c0.33132,0,0.64487-0.09025,0.92718-0.2483
			c0.45815,1.16617,1.26718,1.94452,2.19242,1.94452c1.0006,0,1.86704-0.90865,2.29806-2.23727
			c0.37209,0.3381,0.83148,0.54105,1.33054,0.54105c1.23123,0,2.22823-1.21507,2.22823-2.71361
			C67.99375,69.63077,67.57582,68.42761,66.3454,68.42761z"/>
		<path class="st0" d="M65.89719,67.3816c-0.32957,0-0.63955,0.10609-0.9118,0.2932l-0.54594-7.57464
			c0-2.13029-1.01669-3.85645-2.27128-3.85645c-1.25472,0-2.27114,1.72616-2.27114,3.85645l-0.4994,7.26384
			c-0.14949-0.0471-0.3048-0.0744-0.4657-0.0744c-1.0793,0-1.4554,1.2124-1.4554,2.60839c0,1.39687,0.8755,2.52914,1.95519,2.52914
			c0.29066,0,0.56526-0.08495,0.81288-0.232c0.40191,1.08737,1.11211,1.81243,1.92357,1.81243
			c0.87783,0,1.63834-0.847,2.01612-2.08449c0.32619,0.31477,0.7294,0.50406,1.16773,0.50406
			c1.07917,0,1.95442-1.13227,1.95442-2.52914C67.30645,68.50199,66.97676,67.3816,65.89719,67.3816z"/>
	</g>
	<g id="_x34__10_">
		<path class="st7" d="M65.46611,57.67528c-0.3093,0.42646-0.50466,0.86533-0.60424,1.30829
			c-0.81448-0.30713-1.73196-0.47808-2.70256-0.47414c-1.00094,0.00406-1.94419,0.19432-2.77421,0.52604
			c-0.10007-0.44243-0.29207-0.87973-0.59792-1.30369l-0.00001-0.00281c0.96108-0.49489,2.11826-0.78873,3.36575-0.79379
			C63.37603,56.93021,64.51421,57.20326,65.46611,57.67528z"/>
		<path class="st8" d="M65.54789,56.32122c0,0,1.78042-2.6195,8.48492-2.6176l3.41868-0.01388c0,0,5.77468-0.20205,6.82629,5.25729
			c0,0,1.02555,7.59777-6.49928,9.8554c0,0-3.97598,1.70803-10.17703-5.15577
			C67.60146,63.64666,63.43541,59.53719,65.54789,56.32122z"/>
		<g>
			<g>
				<path class="st7" d="M76.54919,69.43615c-1.98032,0.00803-5.20357-0.93985-9.32639-5.49936
					c-0.28623-0.28577-4.34319-4.43151-2.10478-7.84057c0.08147-0.12069,1.98862-2.80956,8.80066-2.83722l0.11576-0.00047
					l3.4115-0.01385c0.00311-0.00058,0.02845-0.0018,0.06664-0.00196c0.63174-0.00256,6.1972,0.13384,7.25551,5.62924
					l0.00384,0.02126c0.01096,0.07973,0.98295,7.96998-6.81276,10.32445C77.82233,69.27003,77.33611,69.43295,76.54919,69.43615z
					 M73.92229,54.14914c-6.19658,0.02516-7.9358,2.38333-7.95194,2.40718c-1.8979,2.89037,1.96143,6.75251,1.99976,6.79156
					l0.01728,0.01868c4.08479,4.51961,7.11513,5.18499,8.5582,5.17913c0.65862-0.00267,1.01946-0.14494,1.0232-0.14719
					l0.05186-0.01842c6.93977-2.0828,6.1996-9.06732,6.163-9.3695c-0.92422-4.76084-5.72302-4.87881-6.26746-4.87659
					l-0.04601,0.00073l-3.43556,0.01395L73.92229,54.14914z"/>
			</g>
		</g>
		<path class="st8" d="M58.67891,56.3491c0,0-1.80349-2.60495-8.5068-2.54861l-3.41871,0.01388c0,0-5.77565-0.15516-6.78273,5.31253
			c0,0-0.96461,7.60586,6.57908,9.80231c0,0,3.98923,1.67569,10.13452-5.23823
			C56.68428,63.69098,60.81557,59.54783,58.67891,56.3491z"/>
		<g>
			<g>
				<path class="st7" d="M46.37215,69.34591c-7.81363-2.2911-6.90667-10.18898-6.89575-10.2688l0.00305-0.02128
					c1.01382-5.50381,6.57862-5.6854,7.21004-5.68797c0.03912-0.00016,0.06383,0.00086,0.06729,0.00142l3.41006-0.01384
					l0.11672-0.00047c6.81108-0.02765,8.74,2.64564,8.82309,2.76566c2.26573,3.39077-1.75747,7.56932-2.04137,7.8574
					c-4.08551,4.59282-7.30173,5.56686-9.28112,5.57489C46.99585,69.55612,46.50911,69.39715,46.37215,69.34591z M50.17392,54.24555
					l-3.43511,0.01395l-0.04569-0.00036c-0.54427,0.00221-5.34243,0.15913-6.22923,4.92733
					c-0.03241,0.30246-0.71681,7.29276,6.24028,9.31915l0.05169,0.01799c0.00379,0.00222,0.36591,0.14155,1.02469,0.13888
					c1.44307-0.00586,4.46759-0.69582,8.51458-5.24845l0.01809-0.01882c0.03864-0.03937,3.86617-3.93271,1.94487-6.80758
					c-0.01698-0.02372-1.77561-2.36769-7.97091-2.34254L50.17392,54.24555z"/>
			</g>
		</g>
	</g>
	<g>
		<g>
			<path class="st9" d="M77.59002,52.5773c-0.35336-1.20468-1.25681-2.17498-2.54507-2.73043
				c-1.31732-0.56762-2.87377-0.63721-4.38187-0.19463l-0.2506-0.85223c1.70785-0.49929,3.47794-0.4182,4.98396,0.23235
				c1.53494,0.66212,2.61755,1.83242,3.04507,3.29539L77.59002,52.5773z"/>
		</g>
		<g>
			<path class="st9" d="M46.02673,52.87778l-0.85943-0.22365c0.38387-1.47522,1.43031-2.67755,2.9439-3.38646
				c1.48672-0.69439,3.25345-0.82984,4.97509-0.38152l-0.22316,0.85804c-1.52213-0.39576-3.07563-0.27974-4.37578,0.32812
				C47.21661,50.66673,46.34357,51.66286,46.02673,52.87778z"/>
		</g>
	</g>
</g>
<path class="st10" d="M40.28192,61.33945c-1.67253-12.22736-3.12871-14.11469-2.20958-19.3072
	c-2.21962-9.55198,8.81089-20.51183,25.90538-17.38683c13.99432-3.125,23.92186,2.40783,21.83333,13.69326
	c2.83334,1.22492-1.16984,21.04106-1.16984,21.04106L82.8037,39.60709c0,0-1.15932-10.04348-16.07598-1.26841
	c-8.4823,4.98991-18.2026-6.91925-23.87897,1.35917C38.8406,45.54333,40.28192,61.33945,40.28192,61.33945z"/>
<g class="st11">
	<defs>
		<path id="SVGID_1_" class="st11" d="M40.28192,61.33945c-1.67253-12.22736-3.12871-14.11469-2.20958-19.3072
			c-2.21962-9.55198,8.81089-20.51183,25.90538-17.38683c13.99432-3.125,23.92186,2.40783,21.83333,13.69326
			c2.83334,1.22492-1.16984,21.04106-1.16984,21.04106L82.8037,39.60709c0,0-1.15932-10.04348-16.07598-1.26841
			c-8.4823,4.98991-18.2026-6.91925-23.87897,1.35917C38.8406,45.54333,40.28192,61.33945,40.28192,61.33945z"/>
	</defs>
	<clipPath id="SVGID_2_">
		<use xlink:href="#SVGID_1_"  style="overflow:visible;"/>
	</clipPath>
	<path class="st12" d="M49.75105,22.49131c0.32183,8.53924,2.04618,11.66358,2.04618,11.66358s-1.39091-0.28858-1.62167-1.04514
		c-0.2313-0.75305,0.23363,3.067,0.41764,3.36004c0.18473,0.29594-0.87714,1.48842-1.57479,0.18946
		c-0.68495-1.2787-1.85977-5.08041-1.89917-5.2044c0.01648,0.1578,0.51985,4.80708,0.80352,5.58528
		c-0.28915-0.246-1.10197-0.89542-1.41742-1.86544c-0.42272-1.30839-0.53508-1.78228-0.53508-1.78228
		s0.09527,3.23077,0.30066,3.85101c0.2056,0.61972-1.03252-1.49958-1.03252-1.49958s0.33274,3.79167,0.93309,5.13691
		c0.55449,1.23954-0.35609,1.1929-0.68944,0.53125c0.07822,0.23947,0.19714,0.6032,0.32196,0.99081
		c-1.59439-1.73653-2.41123-4.93206-2.77416-8.5458l0.86531,2.50148c-0.01574-0.20003-0.28555-3.37502-0.30838-4.86968
		c-0.02507-1.54589-0.02354-2.63931-0.02354-2.63931s0.67295,2.70842,1.13005,3.31432
		c0.45656,0.61188,0.35999-0.43637,0.28965-1.67069c-0.0693-1.2323,0.03741-2.43047,0.03741-2.43047
		s0.64767,2.57261,1.07658,2.59921c0.42775,0.02321-0.22914-3.25902-0.23238-5.56954
		c-0.00275-2.31137,0.78031,3.37204,1.65042,3.80782c0.86837,0.43779,0.87494-0.07371,0.48532-2.84898
		c-0.39135-2.77609,0.67641-0.11776,1.11776-0.02619C49.45844,26.0956,49.67048,23.6288,49.75105,22.49131z"/>
	<path class="st12" d="M72.08951,22.49131c-0.32184,8.53924-2.04619,11.66358-2.04619,11.66358s1.39091-0.28858,1.62167-1.04514
		c0.23131-0.75305-0.23363,3.067-0.41764,3.36004c-0.18473,0.29594,0.87714,1.48842,1.57479,0.18946
		c0.68495-1.2787,1.85977-5.08041,1.89918-5.2044c-0.01649,0.1578-0.51985,4.80708-0.80353,5.58528
		c0.28915-0.246,1.10197-0.89542,1.41742-1.86544c0.42272-1.30839,0.53509-1.78228,0.53509-1.78228
		s-0.09527,3.23077-0.30066,3.85101c-0.2056,0.61972,1.03252-1.49958,1.03252-1.49958s-0.33273,3.79167-0.93308,5.13691
		c-0.5545,1.23954,0.35608,1.1929,0.68944,0.53125c-0.07822,0.23947-0.19714,0.6032-0.32196,0.99081
		c1.59438-1.73653,2.41122-4.93206,2.77415-8.5458l-0.86532,2.50148c0.01575-0.20003,0.28555-3.37502,0.30839-4.86968
		c0.02506-1.54589,0.02354-2.63931,0.02354-2.63931s-0.67295,2.70842-1.13004,3.31432
		c-0.45656,0.61188-0.35999-0.43637-0.28964-1.67069c0.06929-1.2323-0.03741-2.43047-0.03741-2.43047
		s-0.64767,2.57261-1.07658,2.59921c-0.42775,0.02321,0.22915-3.25902,0.23238-5.56954
		c0.00275-2.31137-0.78031,3.37204-1.65043,3.80782c-0.86837,0.43779-0.87493-0.07371-0.48532-2.84898
		c0.39135-2.77609-0.67641-0.11776-1.11777-0.02619C72.38211,26.0956,72.17007,23.6288,72.08951,22.49131z"/>
	<path class="st12" d="M52.42247,22.03044c2.06209,8.29277,1.27316,11.77306,1.27316,11.77306s1.25607-0.66348,1.26767-1.45436
		c0.01309-0.78766,0.62723,3.01125,0.53183,3.34386c-0.09528,0.3356,1.25597,1.18631,1.56547-0.25529
		c0.30293-1.41861,0.37585-5.39704,0.37927-5.52709c0.02798,0.15618,0.83548,4.76237,0.77905,5.58874
		c0.20947-0.31662,0.80999-1.16621,0.84366-2.18568c0.04277-1.37432,0.01912-1.86077,0.01912-1.86077
		s0.80563,3.13016,0.78056,3.78305c-0.02542,0.65243,0.57549-1.72732,0.57549-1.72732s0.73326,3.73494,0.53008,5.19399
		c-0.18848,1.34477,0.67334,1.04711,0.80984,0.31891c-0.00864,0.25177-0.02188,0.63422-0.03416,1.04125
		c1.04946-2.11098,0.94681-5.40766,0.29197-8.98005l-0.13665,2.64338c-0.04042-0.19653-0.66289-3.32157-1.05601-4.76379
		c-0.4052-1.49205-0.7103-2.54204-0.7103-2.54204s0.10562,2.78877-0.16525,3.49777c-0.26869,0.7146-0.46701-0.31924-0.74219-1.52456
		c-0.27563-1.20308-0.71085-2.32449-0.71085-2.32449s0.09219,2.65128-0.31247,2.79595
		c-0.40448,0.14108-0.68487-3.19448-1.32337-5.41503c-0.63921-2.22123,0.18676,3.45611-0.52812,4.11636
		c-0.71265,0.66171-0.861,0.17215-1.25737-2.60217c-0.39493-2.77558-0.68251,0.07471-1.08108,0.28523
		C53.70444,25.41172,52.81574,23.10082,52.42247,22.03044z"/>
	<path class="st12" d="M70.49981,22.03044c-2.06209,8.29277-1.27316,11.77306-1.27316,11.77306s-1.25607-0.66348-1.26766-1.45436
		c-0.01309-0.78766-0.62723,3.01125-0.53183,3.34386c0.09528,0.3356-1.25597,1.18631-1.56548-0.25529
		c-0.30293-1.41861-0.37585-5.39704-0.37926-5.52709c-0.02798,0.15618-0.83548,4.76237-0.77905,5.58874
		c-0.20947-0.31662-0.80999-1.16621-0.84367-2.18568c-0.04276-1.37432-0.01912-1.86077-0.01912-1.86077
		s-0.80563,3.13016-0.78056,3.78305c0.02542,0.65243-0.57549-1.72732-0.57549-1.72732s-0.73326,3.73494-0.53008,5.19399
		c0.18848,1.34477-0.67334,1.04711-0.80985,0.31891c0.00864,0.25177,0.02189,0.63422,0.03416,1.04125
		c-1.04946-2.11098-0.94681-5.40766-0.29196-8.98005l0.13665,2.64338c0.04042-0.19653,0.66289-3.32157,1.05601-4.76379
		c0.4052-1.49205,0.71029-2.54204,0.71029-2.54204s-0.10562,2.78877,0.16525,3.49777c0.2687,0.7146,0.46702-0.31924,0.74219-1.52456
		c0.27563-1.20308,0.71086-2.32449,0.71086-2.32449s-0.09219,2.65128,0.31246,2.79595
		c0.40448,0.14108,0.68487-3.19448,1.32337-5.41503c0.63921-2.22123-0.18677,3.45611,0.52812,4.11636
		c0.71265,0.66171,0.86099,0.17215,1.25737-2.60217c0.39493-2.77558,0.68251,0.07471,1.08108,0.28523
		C69.21783,25.41172,70.10654,23.10082,70.49981,22.03044z"/>
	<path class="st13" d="M84.02335,42.84075c0.76984-0.18029,1.65104-0.36567,2.65797-0.54689
		c0.8819-0.15919,1.67628-0.32964,2.39318-0.51527l1.37132,0.6665c0,0-1.43079,1.45615-1.94041,1.5876
		c-0.50879,0.13259,1.39994,0.22447,1.68713,0.07144c0.28899-0.15336-0.26058,1.17785-1.42164,1.72887
		c-1.14122,0.54045-3.71655,1.21748-3.80157,1.24073c0.07627,0.00673,2.34001,0.18601,2.90817,0.00081
		c-0.3689,0.27381-1.38972,1.05005-2.06171,1.23972c-0.90378,0.25285-1.19246,0.30047-1.19246,0.30047
		s1.33155,0.39923,1.76472,0.27398c0.43317-0.12557-1.5559,0.8812-1.5559,0.8812s1.77238,0.23014,2.85888-0.20868
		c1.00237-0.40575,0.12035,0.56964-0.45016,0.82656c0.16622-0.0472,0.41881-0.11901,0.68616-0.19347
		c-2.18012,1.45072-4.18288,1.83564-5.91554,1.66573l1.78213-0.54508c-0.09179-0.01409-1.56754-0.21631-2.1634-0.42393
		c-0.61766-0.21318-1.03626-0.38473-1.03626-0.38473s1.67908-0.30533,2.3456-0.70445
		c0.66832-0.39761,0.17399-0.4563-0.36695-0.57219c-0.53916-0.11671-0.8982-0.41805-0.8982-0.41805s1.60292-0.29916,2.02016-0.75788
		c0.41483-0.458-1.46944-0.25916-2.36014-0.61471c-0.89054-0.35622,2.0359-0.31806,3.02901-1.18933
		c0.99223-0.86906,0.80196-0.95563-0.63392-0.96645c-1.43785-0.00907,0.59665-0.74825,1.05065-1.2103
		C85.13031,43.71661,84.38387,43.10446,84.02335,42.84075z"/>
	<path class="st13" d="M39.88192,42.84075c0.76984-0.18029,1.65104-0.36567,2.65797-0.54689
		c0.88189-0.15919,1.67628-0.32964,2.39318-0.51527l1.37132,0.6665c0,0-1.43079,1.45615-1.94041,1.5876
		c-0.50879,0.13259,1.39994,0.22447,1.68713,0.07144c0.28899-0.15336-0.26058,1.17785-1.42163,1.72887
		c-1.14122,0.54045-3.71656,1.21748-3.80158,1.24073c0.07627,0.00673,2.34002,0.18601,2.90817,0.00081
		c-0.3689,0.27381-1.38972,1.05005-2.06171,1.23972c-0.90378,0.25285-1.19246,0.30047-1.19246,0.30047
		s1.33155,0.39923,1.76473,0.27398c0.43317-0.12557-1.5559,0.8812-1.5559,0.8812s1.77237,0.23014,2.85888-0.20868
		c1.00238-0.40575,0.12035,0.56964-0.45016,0.82656c0.16622-0.0472,0.41881-0.11901,0.68616-0.19347
		c-2.18012,1.45072-4.18288,1.83564-5.91555,1.66573l1.78213-0.54508c-0.09179-0.01409-1.56753-0.21631-2.16339-0.42393
		c-0.61766-0.21318-1.03627-0.38473-1.03627-0.38473s1.67908-0.30533,2.34561-0.70445
		c0.66832-0.39761,0.17398-0.4563-0.36695-0.57219c-0.53917-0.11671-0.8982-0.41805-0.8982-0.41805s1.60292-0.29916,2.02016-0.75788
		c0.41484-0.458-1.46944-0.25916-2.36013-0.61471c-0.89054-0.35622,2.0359-0.31806,3.02901-1.18933
		c0.99223-0.86906,0.80196-0.95563-0.63392-0.96645c-1.43785-0.00907,0.59665-0.74825,1.05066-1.2103
		C40.98888,43.71661,40.24245,43.10446,39.88192,42.84075z"/>
</g>
</svg>
